<?xml version="1.0" encoding="UTF-8" standalone="no"?>
<svg width="820px" height="226px" viewBox="0 0 820 226" version="1.1" xmlns="http://www.w3.org/2000/svg" xmlns:xlink="http://www.w3.org/1999/xlink" xmlns:sketch="http://www.bohemiancoding.com/sketch/ns">
    <!-- Generator: Sketch 3.3.2 (12043) - http://www.bohemiancoding.com/sketch -->
    <title>logo</title>
    <desc>Created with Sketch.</desc>
    <defs>
        <linearGradient x1="100%" y1="50%" x2="0%" y2="50%" id="linearGradient-1">
            <stop stop-color="#03EF9F" offset="0%"></stop>
            <stop stop-color="#5AE0FD" offset="48.9795918%"></stop>
            <stop stop-color="#856BDD" offset="100%"></stop>
        </linearGradient>
        <linearGradient x1="0.856205429%" y1="50%" x2="98.9883286%" y2="55.1708192%" id="linearGradient-2">
            <stop stop-color="#FF00BD" offset="0%"></stop>
            <stop stop-color="#00DEFF" offset="51.5306122%"></stop>
            <stop stop-color="#00FF37" offset="100%"></stop>
        </linearGradient>
    </defs>
    <g id="Page-1" stroke="none" stroke-width="1" fill="none" fill-rule="evenodd" sketch:type="MSPage">
        <g id="Artboard-1" sketch:type="MSArtboardGroup" transform="translate(-488.000000, -31.000000)">
            <g id="Shape-+-MSI-Keyboard-Backlig" sketch:type="MSLayerGroup" transform="translate(488.000000, 31.000000)">
                <path d="M204,12.4973917 L204,12.4973917 L204,17.5026083 C204,18.0529049 204.446103,18.5 204.99406,18.5 L217.00594,18.5 C217.553565,18.5 218,18.0530885 218,17.5026083 L218,12.4973917 C218,11.9470951 217.553897,11.5 217.00594,11.5 L204.99406,11.5 C204.446435,11.5 204,11.9469115 204,12.4973917 L204,12.4973917 Z M203,12.4973917 C203,11.3942627 203.894514,10.5 204.99406,10.5 L217.00594,10.5 C218.107229,10.5 219,11.3958578 219,12.4973917 L219,17.5026083 C219,18.6057373 218.105486,19.5 217.00594,19.5 L204.99406,19.5 C203.892771,19.5 203,18.6041422 203,17.5026083 L203,12.4973917 Z M227,12.4973917 L227,17.5026083 C227,18.0529049 227.446103,18.5 227.99406,18.5 L240.00594,18.5 C240.553565,18.5 241,18.0530885 241,17.5026083 L241,12.4973917 C241,11.9470951 240.553897,11.5 240.00594,11.5 L227.99406,11.5 C227.446435,11.5 227,11.9469115 227,12.4973917 Z M226,12.4973917 C226,11.3942627 226.894514,10.5 227.99406,10.5 L240.00594,10.5 C241.107229,10.5 242,11.3958578 242,12.4973917 L242,17.5026083 C242,18.6057373 241.105486,19.5 240.00594,19.5 L227.99406,19.5 C226.892771,19.5 226,18.6041422 226,17.5026083 L226,12.4973917 Z M247,12.4973917 L247,17.5026083 C247,18.0529049 247.446103,18.5 247.99406,18.5 L260.00594,18.5 C260.553565,18.5 261,18.0530885 261,17.5026083 L261,12.4973917 C261,11.9470951 260.553897,11.5 260.00594,11.5 L247.99406,11.5 C247.446435,11.5 247,11.9469115 247,12.4973917 Z M246,12.4973917 C246,11.3942627 246.894514,10.5 247.99406,10.5 L260.00594,10.5 C261.107229,10.5 262,11.3958578 262,12.4973917 L262,17.5026083 C262,18.6057373 261.105486,19.5 260.00594,19.5 L247.99406,19.5 C246.892771,19.5 246,18.6041422 246,17.5026083 L246,12.4973917 Z M267,12.4973917 L267,17.5026083 C267,18.0529049 267.446103,18.5 267.99406,18.5 L280.00594,18.5 C280.553565,18.5 281,18.0530885 281,17.5026083 L281,12.4973917 C281,11.9470951 280.553897,11.5 280.00594,11.5 L267.99406,11.5 C267.446435,11.5 267,11.9469115 267,12.4973917 Z M266,12.4973917 C266,11.3942627 266.894514,10.5 267.99406,10.5 L280.00594,10.5 C281.107229,10.5 282,11.3958578 282,12.4973917 L282,17.5026083 C282,18.6057373 281.105486,19.5 280.00594,19.5 L267.99406,19.5 C266.892771,19.5 266,18.6041422 266,17.5026083 L266,12.4973917 Z M287,12.4973917 L287,17.5026083 C287,18.0529049 287.446103,18.5 287.99406,18.5 L300.00594,18.5 C300.553565,18.5 301,18.0530885 301,17.5026083 L301,12.4973917 C301,11.9470951 300.553897,11.5 300.00594,11.5 L287.99406,11.5 C287.446435,11.5 287,11.9469115 287,12.4973917 Z M286,12.4973917 C286,11.3942627 286.894514,10.5 287.99406,10.5 L300.00594,10.5 C301.107229,10.5 302,11.3958578 302,12.4973917 L302,17.5026083 C302,18.6057373 301.105486,19.5 300.00594,19.5 L287.99406,19.5 C286.892771,19.5 286,18.6041422 286,17.5026083 L286,12.4973917 Z M311,12.4973917 L311,17.5026083 C311,18.0529049 311.446103,18.5 311.99406,18.5 L324.00594,18.5 C324.553565,18.5 325,18.0530885 325,17.5026083 L325,12.4973917 C325,11.9470951 324.553897,11.5 324.00594,11.5 L311.99406,11.5 C311.446435,11.5 311,11.9469115 311,12.4973917 Z M310,12.4973917 C310,11.3942627 310.894514,10.5 311.99406,10.5 L324.00594,10.5 C325.107229,10.5 326,11.3958578 326,12.4973917 L326,17.5026083 C326,18.6057373 325.105486,19.5 324.00594,19.5 L311.99406,19.5 C310.892771,19.5 310,18.6041422 310,17.5026083 L310,12.4973917 Z M331,12.4973917 L331,17.5026083 C331,18.0529049 331.446103,18.5 331.99406,18.5 L344.00594,18.5 C344.553565,18.5 345,18.0530885 345,17.5026083 L345,12.4973917 C345,11.9470951 344.553897,11.5 344.00594,11.5 L331.99406,11.5 C331.446435,11.5 331,11.9469115 331,12.4973917 Z M330,12.4973917 C330,11.3942627 330.894514,10.5 331.99406,10.5 L344.00594,10.5 C345.107229,10.5 346,11.3958578 346,12.4973917 L346,17.5026083 C346,18.6057373 345.105486,19.5 344.00594,19.5 L331.99406,19.5 C330.892771,19.5 330,18.6041422 330,17.5026083 L330,12.4973917 Z M351,12.4973917 L351,17.5026083 C351,18.0529049 351.446103,18.5 351.99406,18.5 L364.00594,18.5 C364.553565,18.5 365,18.0530885 365,17.5026083 L365,12.4973917 C365,11.9470951 364.553897,11.5 364.00594,11.5 L351.99406,11.5 C351.446435,11.5 351,11.9469115 351,12.4973917 Z M350,12.4973917 C350,11.3942627 350.894514,10.5 351.99406,10.5 L364.00594,10.5 C365.107229,10.5 366,11.3958578 366,12.4973917 L366,17.5026083 C366,18.6057373 365.105486,19.5 364.00594,19.5 L351.99406,19.5 C350.892771,19.5 350,18.6041422 350,17.5026083 L350,12.4973917 Z M371,12.4973917 L371,17.5026083 C371,18.0529049 371.446103,18.5 371.99406,18.5 L384.00594,18.5 C384.553565,18.5 385,18.0530885 385,17.5026083 L385,12.4973917 C385,11.9470951 384.553897,11.5 384.00594,11.5 L371.99406,11.5 C371.446435,11.5 371,11.9469115 371,12.4973917 Z M370,12.4973917 C370,11.3942627 370.894514,10.5 371.99406,10.5 L384.00594,10.5 C385.107229,10.5 386,11.3958578 386,12.4973917 L386,17.5026083 C386,18.6057373 385.105486,19.5 384.00594,19.5 L371.99406,19.5 C370.892771,19.5 370,18.6041422 370,17.5026083 L370,12.4973917 Z M395,12.4973917 L395,17.5026083 C395,18.0529049 395.446103,18.5 395.99406,18.5 L408.00594,18.5 C408.553565,18.5 409,18.0530885 409,17.5026083 L409,12.4973917 C409,11.9470951 408.553897,11.5 408.00594,11.5 L395.99406,11.5 C395.446435,11.5 395,11.9469115 395,12.4973917 Z M394,12.4973917 C394,11.3942627 394.894514,10.5 395.99406,10.5 L408.00594,10.5 C409.107229,10.5 410,11.3958578 410,12.4973917 L410,17.5026083 C410,18.6057373 409.105486,19.5 408.00594,19.5 L395.99406,19.5 C394.892771,19.5 394,18.6041422 394,17.5026083 L394,12.4973917 Z M415,12.4973917 L415,17.5026083 C415,18.0529049 415.446103,18.5 415.99406,18.5 L428.00594,18.5 C428.553565,18.5 429,18.0530885 429,17.5026083 L429,12.4973917 C429,11.9470951 428.553897,11.5 428.00594,11.5 L415.99406,11.5 C415.446435,11.5 415,11.9469115 415,12.4973917 Z M414,12.4973917 C414,11.3942627 414.894514,10.5 415.99406,10.5 L428.00594,10.5 C429.107229,10.5 430,11.3958578 430,12.4973917 L430,17.5026083 C430,18.6057373 429.105486,19.5 428.00594,19.5 L415.99406,19.5 C414.892771,19.5 414,18.6041422 414,17.5026083 L414,12.4973917 Z M435,12.4973917 L435,17.5026083 C435,18.0529049 435.446103,18.5 435.99406,18.5 L448.00594,18.5 C448.553565,18.5 449,18.0530885 449,17.5026083 L449,12.4973917 C449,11.9470951 448.553897,11.5 448.00594,11.5 L435.99406,11.5 C435.446435,11.5 435,11.9469115 435,12.4973917 Z M434,12.4973917 C434,11.3942627 434.894514,10.5 435.99406,10.5 L448.00594,10.5 C449.107229,10.5 450,11.3958578 450,12.4973917 L450,17.5026083 C450,18.6057373 449.105486,19.5 448.00594,19.5 L435.99406,19.5 C434.892771,19.5 434,18.6041422 434,17.5026083 L434,12.4973917 Z M455,12.4973917 L455,17.5026083 C455,18.0529049 455.446103,18.5 455.99406,18.5 L468.00594,18.5 C468.553565,18.5 469,18.0530885 469,17.5026083 L469,12.4973917 C469,11.9470951 468.553897,11.5 468.00594,11.5 L455.99406,11.5 C455.446435,11.5 455,11.9469115 455,12.4973917 Z M454,12.4973917 C454,11.3942627 454.894514,10.5 455.99406,10.5 L468.00594,10.5 C469.107229,10.5 470,11.3958578 470,12.4973917 L470,17.5026083 C470,18.6057373 469.105486,19.5 468.00594,19.5 L455.99406,19.5 C454.892771,19.5 454,18.6041422 454,17.5026083 L454,12.4973917 Z M479,12.4973917 L479,17.5026083 C479,18.0529049 479.446103,18.5 479.99406,18.5 L492.00594,18.5 C492.553565,18.5 493,18.0530885 493,17.5026083 L493,12.4973917 C493,11.9470951 492.553897,11.5 492.00594,11.5 L479.99406,11.5 C479.446435,11.5 479,11.9469115 479,12.4973917 Z M478,12.4973917 C478,11.3942627 478.894514,10.5 479.99406,10.5 L492.00594,10.5 C493.107229,10.5 494,11.3958578 494,12.4973917 L494,17.5026083 C494,18.6057373 493.105486,19.5 492.00594,19.5 L479.99406,19.5 C478.892771,19.5 478,18.6041422 478,17.5026083 L478,12.4973917 Z M499,12.4973917 L499,17.5026083 C499,18.0529049 499.446103,18.5 499.99406,18.5 L512.00594,18.5 C512.553565,18.5 513,18.0530885 513,17.5026083 L513,12.4973917 C513,11.9470951 512.553897,11.5 512.00594,11.5 L499.99406,11.5 C499.446435,11.5 499,11.9469115 499,12.4973917 Z M498,12.4973917 C498,11.3942627 498.894514,10.5 499.99406,10.5 L512.00594,10.5 C513.107229,10.5 514,11.3958578 514,12.4973917 L514,17.5026083 C514,18.6057373 513.105486,19.5 512.00594,19.5 L499.99406,19.5 C498.892771,19.5 498,18.6041422 498,17.5026083 L498,12.4973917 Z M519,12.4973917 L519,17.5026083 C519,18.0529049 519.446103,18.5 519.99406,18.5 L532.00594,18.5 C532.553565,18.5 533,18.0530885 533,17.5026083 L533,12.4973917 C533,11.9470951 532.553897,11.5 532.00594,11.5 L519.99406,11.5 C519.446435,11.5 519,11.9469115 519,12.4973917 Z M518,12.4973917 C518,11.3942627 518.894514,10.5 519.99406,10.5 L532.00594,10.5 C533.107229,10.5 534,11.3958578 534,12.4973917 L534,17.5026083 C534,18.6057373 533.105486,19.5 532.00594,19.5 L519.99406,19.5 C518.892771,19.5 518,18.6041422 518,17.5026083 L518,12.4973917 Z M543,12.4973917 L543,17.5026083 C543,18.0531485 543.445374,18.5 543.991884,18.5 L555.008116,18.5 C555.554376,18.5 556,18.0533919 556,17.5026083 L556,12.4973917 C556,11.9468515 555.554626,11.5 555.008116,11.5 L543.991884,11.5 C543.445624,11.5 543,11.9466081 543,12.4973917 Z M542,12.4973917 C542,11.3942627 542.893397,10.5 543.991884,10.5 L555.008116,10.5 C556.108203,10.5 557,11.3958578 557,12.4973917 L557,17.5026083 C557,18.6057373 556.106603,19.5 555.008116,19.5 L543.991884,19.5 C542.891797,19.5 542,18.6041422 542,17.5026083 L542,12.4973917 Z M562,12.4973917 L562,17.5026083 C562,18.0531485 562.445374,18.5 562.991884,18.5 L574.008116,18.5 C574.554376,18.5 575,18.0533919 575,17.5026083 L575,12.4973917 C575,11.9468515 574.554626,11.5 574.008116,11.5 L562.991884,11.5 C562.445624,11.5 562,11.9466081 562,12.4973917 Z M561,12.4973917 C561,11.3942627 561.893397,10.5 562.991884,10.5 L574.008116,10.5 C575.108203,10.5 576,11.3958578 576,12.4973917 L576,17.5026083 C576,18.6057373 575.106603,19.5 574.008116,19.5 L562.991884,19.5 C561.891797,19.5 561,18.6041422 561,17.5026083 L561,12.4973917 Z M581,12.4973917 L581,17.5026083 C581,18.0531485 581.445374,18.5 581.991884,18.5 L593.008116,18.5 C593.554376,18.5 594,18.0533919 594,17.5026083 L594,12.4973917 C594,11.9468515 593.554626,11.5 593.008116,11.5 L581.991884,11.5 C581.445624,11.5 581,11.9466081 581,12.4973917 Z M580,12.4973917 C580,11.3942627 580.893397,10.5 581.991884,10.5 L593.008116,10.5 C594.108203,10.5 595,11.3958578 595,12.4973917 L595,17.5026083 C595,18.6057373 594.106603,19.5 593.008116,19.5 L581.991884,19.5 C580.891797,19.5 580,18.6041422 580,17.5026083 L580,12.4973917 Z M600,12.4973917 L600,17.5026083 C600,18.0531485 600.445374,18.5 600.991884,18.5 L612.008116,18.5 C612.554376,18.5 613,18.0533919 613,17.5026083 L613,12.4973917 C613,11.9468515 612.554626,11.5 612.008116,11.5 L600.991884,11.5 C600.445624,11.5 600,11.9466081 600,12.4973917 Z M599,12.4973917 C599,11.3942627 599.893397,10.5 600.991884,10.5 L612.008116,10.5 C613.108203,10.5 614,11.3958578 614,12.4973917 L614,17.5026083 C614,18.6057373 613.106603,19.5 612.008116,19.5 L600.991884,19.5 C599.891797,19.5 599,18.6041422 599,17.5026083 L599,12.4973917 Z M543,25.4950893 L543,39.5049107 C543,40.0551945 543.444185,40.5 543.991884,40.5 L555.008116,40.5 C555.554635,40.5 556,40.0541656 556,39.5049107 L556,25.4950893 C556,24.9448055 555.555815,24.5 555.008116,24.5 L543.991884,24.5 C543.445365,24.5 543,24.9458344 543,25.4950893 Z M542,25.4950893 C542,24.3932319 542.893397,23.5 543.991884,23.5 L555.008116,23.5 C556.108203,23.5 557,24.3926228 557,25.4950893 L557,39.5049107 C557,40.6067681 556.106603,41.5 555.008116,41.5 L543.991884,41.5 C542.891797,41.5 542,40.6073772 542,39.5049107 L542,25.4950893 Z M581,25.4950893 L581,39.5049107 C581,40.0551945 581.444185,40.5 581.991884,40.5 L593.008116,40.5 C593.554635,40.5 594,40.0541656 594,39.5049107 L594,25.4950893 C594,24.9448055 593.555815,24.5 593.008116,24.5 L581.991884,24.5 C581.445365,24.5 581,24.9458344 581,25.4950893 Z M580,25.4950893 C580,24.3932319 580.893397,23.5 581.991884,23.5 L593.008116,23.5 C594.108203,23.5 595,24.3926228 595,25.4950893 L595,39.5049107 C595,40.6067681 594.106603,41.5 593.008116,41.5 L581.991884,41.5 C580.891797,41.5 580,40.6073772 580,39.5049107 L580,25.4950893 Z M562,25.4950893 L562,39.5049107 C562,40.0551945 562.444185,40.5 562.991884,40.5 L574.008116,40.5 C574.554635,40.5 575,40.0541656 575,39.5049107 L575,25.4950893 C575,24.9448055 574.555815,24.5 574.008116,24.5 L562.991884,24.5 C562.445365,24.5 562,24.9458344 562,25.4950893 Z M561,25.4950893 C561,24.3932319 561.893397,23.5 562.991884,23.5 L574.008116,23.5 C575.108203,23.5 576,24.3926228 576,25.4950893 L576,39.5049107 C576,40.6067681 575.106603,41.5 574.008116,41.5 L562.991884,41.5 C561.891797,41.5 561,40.6073772 561,39.5049107 L561,25.4950893 Z M600,25.4950893 L600,39.5049107 C600,40.0551945 600.444185,40.5 600.991884,40.5 L612.008116,40.5 C612.554635,40.5 613,40.0541656 613,39.5049107 L613,25.4950893 C613,24.9448055 612.555815,24.5 612.008116,24.5 L600.991884,24.5 C600.445365,24.5 600,24.9458344 600,25.4950893 Z M599,25.4950893 C599,24.3932319 599.893397,23.5 600.991884,23.5 L612.008116,23.5 C613.108203,23.5 614,24.3926228 614,25.4950893 L614,39.5049107 C614,40.6067681 613.106603,41.5 612.008116,41.5 L600.991884,41.5 C599.891797,41.5 599,40.6073772 599,39.5049107 L599,25.4950893 Z M543,47.4950893 L543,61.5049107 C543,62.0551945 543.444185,62.5 543.991884,62.5 L555.008116,62.5 C555.554635,62.5 556,62.0541656 556,61.5049107 L556,47.4950893 C556,46.9448055 555.555815,46.5 555.008116,46.5 L543.991884,46.5 C543.445365,46.5 543,46.9458344 543,47.4950893 Z M542,47.4950893 C542,46.3932319 542.893397,45.5 543.991884,45.5 L555.008116,45.5 C556.108203,45.5 557,46.3926228 557,47.4950893 L557,61.5049107 C557,62.6067681 556.106603,63.5 555.008116,63.5 L543.991884,63.5 C542.891797,63.5 542,62.6073772 542,61.5049107 L542,47.4950893 Z M581,47.4950893 L581,61.5049107 C581,62.0551945 581.444185,62.5 581.991884,62.5 L593.008116,62.5 C593.554635,62.5 594,62.0541656 594,61.5049107 L594,47.4950893 C594,46.9448055 593.555815,46.5 593.008116,46.5 L581.991884,46.5 C581.445365,46.5 581,46.9458344 581,47.4950893 Z M580,47.4950893 C580,46.3932319 580.893397,45.5 581.991884,45.5 L593.008116,45.5 C594.108203,45.5 595,46.3926228 595,47.4950893 L595,61.5049107 C595,62.6067681 594.106603,63.5 593.008116,63.5 L581.991884,63.5 C580.891797,63.5 580,62.6073772 580,61.5049107 L580,47.4950893 Z M562,47.4950893 L562,61.5049107 C562,62.0551945 562.444185,62.5 562.991884,62.5 L574.008116,62.5 C574.554635,62.5 575,62.0541656 575,61.5049107 L575,47.4950893 C575,46.9448055 574.555815,46.5 574.008116,46.5 L562.991884,46.5 C562.445365,46.5 562,46.9458344 562,47.4950893 Z M561,47.4950893 C561,46.3932319 561.893397,45.5 562.991884,45.5 L574.008116,45.5 C575.108203,45.5 576,46.3926228 576,47.4950893 L576,61.5049107 C576,62.6067681 575.106603,63.5 574.008116,63.5 L562.991884,63.5 C561.891797,63.5 561,62.6073772 561,61.5049107 L561,47.4950893 Z M600,47.4972916 L600,83.5027084 C600,84.0556496 600.443558,84.5 600.991884,84.5 L612.008116,84.5 C612.554387,84.5 613,84.0534255 613,83.5027084 L613,47.4972916 C613,46.9443504 612.556442,46.5 612.008116,46.5 L600.991884,46.5 C600.445613,46.5 600,46.9465745 600,47.4972916 Z M599,47.4972916 C599,46.3942179 599.893397,45.5 600.991884,45.5 L612.008116,45.5 C613.108203,45.5 614,46.3915398 614,47.4972916 L614,83.5027084 C614,84.6057821 613.106603,85.5 612.008116,85.5 L600.991884,85.5 C599.891797,85.5 599,84.6084602 599,83.5027084 L599,47.4972916 Z M543,69.4950893 L543,83.5049107 C543,84.0551945 543.444185,84.5 543.991884,84.5 L555.008116,84.5 C555.554635,84.5 556,84.0541656 556,83.5049107 L556,69.4950893 C556,68.9448055 555.555815,68.5 555.008116,68.5 L543.991884,68.5 C543.445365,68.5 543,68.9458344 543,69.4950893 Z M542,69.4950893 C542,68.3932319 542.893397,67.5 543.991884,67.5 L555.008116,67.5 C556.108203,67.5 557,68.3926228 557,69.4950893 L557,83.5049107 C557,84.6067681 556.106603,85.5 555.008116,85.5 L543.991884,85.5 C542.891797,85.5 542,84.6073772 542,83.5049107 L542,69.4950893 Z M581,69.4950893 L581,83.5049107 C581,84.0551945 581.444185,84.5 581.991884,84.5 L593.008116,84.5 C593.554635,84.5 594,84.0541656 594,83.5049107 L594,69.4950893 C594,68.9448055 593.555815,68.5 593.008116,68.5 L581.991884,68.5 C581.445365,68.5 581,68.9458344 581,69.4950893 Z M580,69.4950893 C580,68.3932319 580.893397,67.5 581.991884,67.5 L593.008116,67.5 C594.108203,67.5 595,68.3926228 595,69.4950893 L595,83.5049107 C595,84.6067681 594.106603,85.5 593.008116,85.5 L581.991884,85.5 C580.891797,85.5 580,84.6073772 580,83.5049107 L580,69.4950893 Z M562,69.4950893 L562,83.5049107 C562,84.0551945 562.444185,84.5 562.991884,84.5 L574.008116,84.5 C574.554635,84.5 575,84.0541656 575,83.5049107 L575,69.4950893 C575,68.9448055 574.555815,68.5 574.008116,68.5 L562.991884,68.5 C562.445365,68.5 562,68.9458344 562,69.4950893 Z M561,69.4950893 C561,68.3932319 561.893397,67.5 562.991884,67.5 L574.008116,67.5 C575.108203,67.5 576,68.3926228 576,69.4950893 L576,83.5049107 C576,84.6067681 575.106603,85.5 574.008116,85.5 L562.991884,85.5 C561.891797,85.5 561,84.6073772 561,83.5049107 L561,69.4950893 Z M543,91.4950893 L543,105.504911 C543,106.055195 543.444185,106.5 543.991884,106.5 L555.008116,106.5 C555.554635,106.5 556,106.054166 556,105.504911 L556,91.4950893 C556,90.9448055 555.555815,90.5 555.008116,90.5 L543.991884,90.5 C543.445365,90.5 543,90.9458344 543,91.4950893 Z M542,91.4950893 C542,90.3932319 542.893397,89.5 543.991884,89.5 L555.008116,89.5 C556.108203,89.5 557,90.3926228 557,91.4950893 L557,105.504911 C557,106.606768 556.106603,107.5 555.008116,107.5 L543.991884,107.5 C542.891797,107.5 542,106.607377 542,105.504911 L542,91.4950893 Z M581,91.4950893 L581,105.504911 C581,106.055195 581.444185,106.5 581.991884,106.5 L593.008116,106.5 C593.554635,106.5 594,106.054166 594,105.504911 L594,91.4950893 C594,90.9448055 593.555815,90.5 593.008116,90.5 L581.991884,90.5 C581.445365,90.5 581,90.9458344 581,91.4950893 Z M580,91.4950893 C580,90.3932319 580.893397,89.5 581.991884,89.5 L593.008116,89.5 C594.108203,89.5 595,90.3926228 595,91.4950893 L595,105.504911 C595,106.606768 594.106603,107.5 593.008116,107.5 L581.991884,107.5 C580.891797,107.5 580,106.607377 580,105.504911 L580,91.4950893 Z M562,91.4950893 L562,105.504911 C562,106.055195 562.444185,106.5 562.991884,106.5 L574.008116,106.5 C574.554635,106.5 575,106.054166 575,105.504911 L575,91.4950893 C575,90.9448055 574.555815,90.5 574.008116,90.5 L562.991884,90.5 C562.445365,90.5 562,90.9458344 562,91.4950893 Z M561,91.4950893 C561,90.3932319 561.893397,89.5 562.991884,89.5 L574.008116,89.5 C575.108203,89.5 576,90.3926228 576,91.4950893 L576,105.504911 C576,106.606768 575.106603,107.5 574.008116,107.5 L562.991884,107.5 C561.891797,107.5 561,106.607377 561,105.504911 L561,91.4950893 Z M600,91.4972916 L600,127.502708 C600,128.05565 600.443558,128.5 600.991884,128.5 L612.008116,128.5 C612.554387,128.5 613,128.053426 613,127.502708 L613,91.4972916 C613,90.9443504 612.556442,90.5 612.008116,90.5 L600.991884,90.5 C600.445613,90.5 600,90.9465745 600,91.4972916 Z M599,91.4972916 C599,90.3942179 599.893397,89.5 600.991884,89.5 L612.008116,89.5 C613.108203,89.5 614,90.3915398 614,91.4972916 L614,127.502708 C614,128.605782 613.106603,129.5 612.008116,129.5 L600.991884,129.5 C599.891797,129.5 599,128.60846 599,127.502708 L599,91.4972916 Z M581,113.495089 L581,127.504911 C581,128.055195 581.444185,128.5 581.991884,128.5 L593.008116,128.5 C593.554635,128.5 594,128.054166 594,127.504911 L594,113.495089 C594,112.944805 593.555815,112.5 593.008116,112.5 L581.991884,112.5 C581.445365,112.5 581,112.945834 581,113.495089 Z M580,113.495089 C580,112.393232 580.893397,111.5 581.991884,111.5 L593.008116,111.5 C594.108203,111.5 595,112.392623 595,113.495089 L595,127.504911 C595,128.606768 594.106603,129.5 593.008116,129.5 L581.991884,129.5 C580.891797,129.5 580,128.607377 580,127.504911 L580,113.495089 Z M562,113.495089 L562,127.504911 C562,128.055195 562.444185,128.5 562.991884,128.5 L574.008116,128.5 C574.554635,128.5 575,128.054166 575,127.504911 L575,113.495089 C575,112.944805 574.555815,112.5 574.008116,112.5 L562.991884,112.5 C562.445365,112.5 562,112.945834 562,113.495089 Z M561,113.495089 C561,112.393232 561.893397,111.5 562.991884,111.5 L574.008116,111.5 C575.108203,111.5 576,112.392623 576,113.495089 L576,127.504911 C576,128.606768 575.106603,129.5 574.008116,129.5 L562.991884,129.5 C561.891797,129.5 561,128.607377 561,127.504911 L561,113.495089 Z M539,113.495089 L539,127.504911 C539,128.054835 539.445259,128.5 539.995089,128.5 L554.004911,128.5 C554.554835,128.5 555,128.054741 555,127.504911 L555,113.495089 C555,112.945165 554.554741,112.5 554.004911,112.5 L539.995089,112.5 C539.445165,112.5 539,112.945259 539,113.495089 Z M538,113.495089 C538,112.393232 538.892623,111.5 539.995089,111.5 L554.004911,111.5 C555.106768,111.5 556,112.392623 556,113.495089 L556,127.504911 C556,128.606768 555.107377,129.5 554.004911,129.5 L539.995089,129.5 C538.893232,129.5 538,128.607377 538,127.504911 L538,113.495089 Z M517,113.495089 L517,127.504911 C517,128.054835 517.445259,128.5 517.995089,128.5 L532.004911,128.5 C532.554835,128.5 533,128.054741 533,127.504911 L533,113.495089 C533,112.945165 532.554741,112.5 532.004911,112.5 L517.995089,112.5 C517.445165,112.5 517,112.945259 517,113.495089 Z M516,113.495089 C516,112.393232 516.892623,111.5 517.995089,111.5 L532.004911,111.5 C533.106768,111.5 534,112.392623 534,113.495089 L534,127.504911 C534,128.606768 533.107377,129.5 532.004911,129.5 L517.995089,129.5 C516.893232,129.5 516,128.607377 516,127.504911 L516,113.495089 Z M517,91.4950893 L517,105.504911 C517,106.054835 517.445259,106.5 517.995089,106.5 L532.004911,106.5 C532.554835,106.5 533,106.054741 533,105.504911 L533,91.4950893 C533,90.9451651 532.554741,90.5 532.004911,90.5 L517.995089,90.5 C517.445165,90.5 517,90.945259 517,91.4950893 Z M516,91.4950893 C516,90.3932319 516.892623,89.5 517.995089,89.5 L532.004911,89.5 C533.106768,89.5 534,90.3926228 534,91.4950893 L534,105.504911 C534,106.606768 533.107377,107.5 532.004911,107.5 L517.995089,107.5 C516.893232,107.5 516,106.607377 516,105.504911 L516,91.4950893 Z M495,113.495089 L495,127.504911 C495,128.054835 495.445259,128.5 495.995089,128.5 L510.004911,128.5 C510.554835,128.5 511,128.054741 511,127.504911 L511,113.495089 C511,112.945165 510.554741,112.5 510.004911,112.5 L495.995089,112.5 C495.445165,112.5 495,112.945259 495,113.495089 Z M494,113.495089 C494,112.393232 494.892623,111.5 495.995089,111.5 L510.004911,111.5 C511.106768,111.5 512,112.392623 512,113.495089 L512,127.504911 C512,128.606768 511.107377,129.5 510.004911,129.5 L495.995089,129.5 C494.893232,129.5 494,128.607377 494,127.504911 L494,113.495089 Z M473,113.495089 L473,127.504911 C473,128.054835 473.445259,128.5 473.995089,128.5 L488.004911,128.5 C488.554835,128.5 489,128.054741 489,127.504911 L489,113.495089 C489,112.945165 488.554741,112.5 488.004911,112.5 L473.995089,112.5 C473.445165,112.5 473,112.945259 473,113.495089 Z M472,113.495089 C472,112.393232 472.892623,111.5 473.995089,111.5 L488.004911,111.5 C489.106768,111.5 490,112.392623 490,113.495089 L490,127.504911 C490,128.606768 489.107377,129.5 488.004911,129.5 L473.995089,129.5 C472.893232,129.5 472,128.607377 472,127.504911 L472,113.495089 Z M451,113.495089 L451,127.504911 C451,128.054835 451.445259,128.5 451.995089,128.5 L466.004911,128.5 C466.554835,128.5 467,128.054741 467,127.504911 L467,113.495089 C467,112.945165 466.554741,112.5 466.004911,112.5 L451.995089,112.5 C451.445165,112.5 451,112.945259 451,113.495089 Z M450,113.495089 C450,112.393232 450.892623,111.5 451.995089,111.5 L466.004911,111.5 C467.106768,111.5 468,112.392623 468,113.495089 L468,127.504911 C468,128.606768 467.107377,129.5 466.004911,129.5 L451.995089,129.5 C450.893232,129.5 450,128.607377 450,127.504911 L450,113.495089 Z M429,113.495089 L429,127.504911 C429,128.054835 429.445259,128.5 429.995089,128.5 L444.004911,128.5 C444.554835,128.5 445,128.054741 445,127.504911 L445,113.495089 C445,112.945165 444.554741,112.5 444.004911,112.5 L429.995089,112.5 C429.445165,112.5 429,112.945259 429,113.495089 Z M428,113.495089 C428,112.393232 428.892623,111.5 429.995089,111.5 L444.004911,111.5 C445.106768,111.5 446,112.392623 446,113.495089 L446,127.504911 C446,128.606768 445.107377,129.5 444.004911,129.5 L429.995089,129.5 C428.893232,129.5 428,128.607377 428,127.504911 L428,113.495089 Z M407,113.495089 L407,127.504911 C407,128.054835 407.445259,128.5 407.995089,128.5 L422.004911,128.5 C422.554835,128.5 423,128.054741 423,127.504911 L423,113.495089 C423,112.945165 422.554741,112.5 422.004911,112.5 L407.995089,112.5 C407.445165,112.5 407,112.945259 407,113.495089 Z M406,113.495089 C406,112.393232 406.892623,111.5 407.995089,111.5 L422.004911,111.5 C423.106768,111.5 424,112.392623 424,113.495089 L424,127.504911 C424,128.606768 423.107377,129.5 422.004911,129.5 L407.995089,129.5 C406.893232,129.5 406,128.607377 406,127.504911 L406,113.495089 Z M265,113.495089 L265,127.504911 C265,128.053728 265.448571,128.5 266.004947,128.5 L285.995053,128.5 C286.551528,128.5 287,128.053638 287,127.504911 L287,113.495089 C287,112.946272 286.551429,112.5 285.995053,112.5 L266.004947,112.5 C265.448472,112.5 265,112.946362 265,113.495089 Z M264,113.495089 C264,112.393232 264.897026,111.5 266.004947,111.5 L285.995053,111.5 C287.102355,111.5 288,112.392623 288,113.495089 L288,127.504911 C288,128.606768 287.102974,129.5 285.995053,129.5 L266.004947,129.5 C264.897645,129.5 264,128.607377 264,127.504911 L264,113.495089 Z M244,113.495089 L244,127.504911 C244,128.054272 244.446943,128.5 245.000106,128.5 L257.999894,128.5 C258.555928,128.5 259,128.056211 259,127.504911 L259,113.495089 C259,112.945728 258.553057,112.5 257.999894,112.5 L245.000106,112.5 C244.444072,112.5 244,112.943789 244,113.495089 Z M243,113.495089 C243,112.393232 243.890058,111.5 245.000106,111.5 L257.999894,111.5 C259.104522,111.5 260,112.392623 260,113.495089 L260,127.504911 C260,128.606768 259.109942,129.5 257.999894,129.5 L245.000106,129.5 C243.895478,129.5 243,128.607377 243,127.504911 L243,113.495089 Z M204,113.495089 L204,127.504911 C204,128.054317 204.446809,128.5 204.999707,128.5 L237.000293,128.5 C237.556054,128.5 238,128.056251 238,127.504911 L238,113.495089 C238,112.945683 237.553191,112.5 237.000293,112.5 L204.999707,112.5 C204.443946,112.5 204,112.943749 204,113.495089 Z M203,113.495089 C203,112.393232 203.889893,111.5 204.999707,111.5 L237.000293,111.5 C238.104701,111.5 239,112.392623 239,113.495089 L239,127.504911 C239,128.606768 238.110107,129.5 237.000293,129.5 L204.999707,129.5 C203.895299,129.5 203,128.607377 203,127.504911 L203,113.495089 Z M293,113.495089 L293,127.504911 C293,128.053929 293.447969,128.5 294.003157,128.5 L399.996843,128.5 C400.558359,128.5 401,128.058401 401,127.504911 L401,113.495089 C401,112.946071 400.552031,112.5 399.996843,112.5 L294.003157,112.5 C293.441641,112.5 293,112.941599 293,113.495089 Z M292,113.495089 C292,112.393232 292.885439,111.5 294.003157,111.5 L399.996843,111.5 C401.103156,111.5 402,112.392623 402,113.495089 L402,127.504911 C402,128.606768 401.114561,129.5 399.996843,129.5 L294.003157,129.5 C292.896844,129.5 292,128.607377 292,127.504911 L292,113.495089 Z M477,91.4950893 L477,105.504911 C477,106.054317 477.446809,106.5 477.999707,106.5 L510.000293,106.5 C510.556054,106.5 511,106.056251 511,105.504911 L511,91.4950893 C511,90.9456835 510.553191,90.5 510.000293,90.5 L477.999707,90.5 C477.443946,90.5 477,90.9437492 477,91.4950893 Z M476,91.4950893 C476,90.3932319 476.889893,89.5 477.999707,89.5 L510.000293,89.5 C511.104701,89.5 512,90.3926228 512,91.4950893 L512,105.504911 C512,106.606768 511.110107,107.5 510.000293,107.5 L477.999707,107.5 C476.895299,107.5 476,106.607377 476,105.504911 L476,91.4950893 Z M455,91.4950893 L455,105.504911 C455,106.054835 455.445259,106.5 455.995089,106.5 L470.004911,106.5 C470.554835,106.5 471,106.054741 471,105.504911 L471,91.4950893 C471,90.9451651 470.554741,90.5 470.004911,90.5 L455.995089,90.5 C455.445165,90.5 455,90.945259 455,91.4950893 Z M454,91.4950893 C454,90.3932319 454.892623,89.5 455.995089,89.5 L470.004911,89.5 C471.106768,89.5 472,90.3926228 472,91.4950893 L472,105.504911 C472,106.606768 471.107377,107.5 470.004911,107.5 L455.995089,107.5 C454.893232,107.5 454,106.607377 454,105.504911 L454,91.4950893 Z M433,91.4950893 L433,105.504911 C433,106.054835 433.445259,106.5 433.995089,106.5 L448.004911,106.5 C448.554835,106.5 449,106.054741 449,105.504911 L449,91.4950893 C449,90.9451651 448.554741,90.5 448.004911,90.5 L433.995089,90.5 C433.445165,90.5 433,90.945259 433,91.4950893 Z M432,91.4950893 C432,90.3932319 432.892623,89.5 433.995089,89.5 L448.004911,89.5 C449.106768,89.5 450,90.3926228 450,91.4950893 L450,105.504911 C450,106.606768 449.107377,107.5 448.004911,107.5 L433.995089,107.5 C432.893232,107.5 432,106.607377 432,105.504911 L432,91.4950893 Z M411,91.4950893 L411,105.504911 C411,106.054835 411.445259,106.5 411.995089,106.5 L426.004911,106.5 C426.554835,106.5 427,106.054741 427,105.504911 L427,91.4950893 C427,90.9451651 426.554741,90.5 426.004911,90.5 L411.995089,90.5 C411.445165,90.5 411,90.945259 411,91.4950893 Z M410,91.4950893 C410,90.3932319 410.892623,89.5 411.995089,89.5 L426.004911,89.5 C427.106768,89.5 428,90.3926228 428,91.4950893 L428,105.504911 C428,106.606768 427.107377,107.5 426.004911,107.5 L411.995089,107.5 C410.893232,107.5 410,106.607377 410,105.504911 L410,91.4950893 Z M389,91.4950893 L389,105.504911 C389,106.054835 389.445259,106.5 389.995089,106.5 L404.004911,106.5 C404.554835,106.5 405,106.054741 405,105.504911 L405,91.4950893 C405,90.9451651 404.554741,90.5 404.004911,90.5 L389.995089,90.5 C389.445165,90.5 389,90.945259 389,91.4950893 Z M388,91.4950893 C388,90.3932319 388.892623,89.5 389.995089,89.5 L404.004911,89.5 C405.106768,89.5 406,90.3926228 406,91.4950893 L406,105.504911 C406,106.606768 405.107377,107.5 404.004911,107.5 L389.995089,107.5 C388.893232,107.5 388,106.607377 388,105.504911 L388,91.4950893 Z M367,91.4950893 L367,105.504911 C367,106.054835 367.445259,106.5 367.995089,106.5 L382.004911,106.5 C382.554835,106.5 383,106.054741 383,105.504911 L383,91.4950893 C383,90.9451651 382.554741,90.5 382.004911,90.5 L367.995089,90.5 C367.445165,90.5 367,90.945259 367,91.4950893 Z M366,91.4950893 C366,90.3932319 366.892623,89.5 367.995089,89.5 L382.004911,89.5 C383.106768,89.5 384,90.3926228 384,91.4950893 L384,105.504911 C384,106.606768 383.107377,107.5 382.004911,107.5 L367.995089,107.5 C366.893232,107.5 366,106.607377 366,105.504911 L366,91.4950893 Z M345,91.4950893 L345,105.504911 C345,106.054835 345.445259,106.5 345.995089,106.5 L360.004911,106.5 C360.554835,106.5 361,106.054741 361,105.504911 L361,91.4950893 C361,90.9451651 360.554741,90.5 360.004911,90.5 L345.995089,90.5 C345.445165,90.5 345,90.945259 345,91.4950893 Z M344,91.4950893 C344,90.3932319 344.892623,89.5 345.995089,89.5 L360.004911,89.5 C361.106768,89.5 362,90.3926228 362,91.4950893 L362,105.504911 C362,106.606768 361.107377,107.5 360.004911,107.5 L345.995089,107.5 C344.893232,107.5 344,106.607377 344,105.504911 L344,91.4950893 Z M323,91.4950893 L323,105.504911 C323,106.054835 323.445259,106.5 323.995089,106.5 L338.004911,106.5 C338.554835,106.5 339,106.054741 339,105.504911 L339,91.4950893 C339,90.9451651 338.554741,90.5 338.004911,90.5 L323.995089,90.5 C323.445165,90.5 323,90.945259 323,91.4950893 Z M322,91.4950893 C322,90.3932319 322.892623,89.5 323.995089,89.5 L338.004911,89.5 C339.106768,89.5 340,90.3926228 340,91.4950893 L340,105.504911 C340,106.606768 339.107377,107.5 338.004911,107.5 L323.995089,107.5 C322.893232,107.5 322,106.607377 322,105.504911 L322,91.4950893 Z M301,91.4950893 L301,105.504911 C301,106.054835 301.445259,106.5 301.995089,106.5 L316.004911,106.5 C316.554835,106.5 317,106.054741 317,105.504911 L317,91.4950893 C317,90.9451651 316.554741,90.5 316.004911,90.5 L301.995089,90.5 C301.445165,90.5 301,90.945259 301,91.4950893 Z M300,91.4950893 C300,90.3932319 300.892623,89.5 301.995089,89.5 L316.004911,89.5 C317.106768,89.5 318,90.3926228 318,91.4950893 L318,105.504911 C318,106.606768 317.107377,107.5 316.004911,107.5 L301.995089,107.5 C300.893232,107.5 300,106.607377 300,105.504911 L300,91.4950893 Z M279,91.4950893 L279,105.504911 C279,106.054835 279.445259,106.5 279.995089,106.5 L294.004911,106.5 C294.554835,106.5 295,106.054741 295,105.504911 L295,91.4950893 C295,90.9451651 294.554741,90.5 294.004911,90.5 L279.995089,90.5 C279.445165,90.5 279,90.945259 279,91.4950893 Z M278,91.4950893 C278,90.3932319 278.892623,89.5 279.995089,89.5 L294.004911,89.5 C295.106768,89.5 296,90.3926228 296,91.4950893 L296,105.504911 C296,106.606768 295.107377,107.5 294.004911,107.5 L279.995089,107.5 C278.893232,107.5 278,106.607377 278,105.504911 L278,91.4950893 Z M257,91.4950893 L257,105.504911 C257,106.054835 257.445259,106.5 257.995089,106.5 L272.004911,106.5 C272.554835,106.5 273,106.054741 273,105.504911 L273,91.4950893 C273,90.9451651 272.554741,90.5 272.004911,90.5 L257.995089,90.5 C257.445165,90.5 257,90.945259 257,91.4950893 Z M256,91.4950893 C256,90.3932319 256.892623,89.5 257.995089,89.5 L272.004911,89.5 C273.106768,89.5 274,90.3926228 274,91.4950893 L274,105.504911 C274,106.606768 273.107377,107.5 272.004911,107.5 L257.995089,107.5 C256.893232,107.5 256,106.607377 256,105.504911 L256,91.4950893 Z M204,91.4950893 L204,105.504911 C204,106.054637 204.44585,106.5 204.996852,106.5 L250.003148,106.5 C250.554876,106.5 251,106.055007 251,105.504911 L251,91.4950893 C251,90.9453629 250.55415,90.5 250.003148,90.5 L204.996852,90.5 C204.445124,90.5 204,90.9449933 204,91.4950893 Z M203,91.4950893 C203,90.3932319 203.892315,89.5 204.996852,89.5 L250.003148,89.5 C251.105979,89.5 252,90.3926228 252,91.4950893 L252,105.504911 C252,106.606768 251.107685,107.5 250.003148,107.5 L204.996852,107.5 C203.894021,107.5 203,106.607377 203,105.504911 L203,91.4950893 Z M488,69.4950893 L488,83.5049107 C488,84.0537789 488.44842,84.5 489.004496,84.5 L531.995504,84.5 C532.551625,84.5 533,84.0536486 533,83.5049107 L533,67.5 L534,68.5 L489.004496,68.5 C488.448375,68.5 488,68.9463514 488,69.4950893 Z M487,69.4950893 C487,68.3932319 487.896919,67.5 489.004496,67.5 L534,67.5 L534,83.5049107 C534,84.6067681 533.103081,85.5 531.995504,85.5 L489.004496,85.5 C487.897443,85.5 487,84.6073772 487,83.5049107 L487,69.4950893 Z M466,69.4950893 L466,83.5049107 C466,84.0548349 466.445259,84.5 466.995089,84.5 L481.004911,84.5 C481.554835,84.5 482,84.054741 482,83.5049107 L482,69.4950893 C482,68.9451651 481.554741,68.5 481.004911,68.5 L466.995089,68.5 C466.445165,68.5 466,68.945259 466,69.4950893 Z M465,69.4950893 C465,68.3932319 465.892623,67.5 466.995089,67.5 L481.004911,67.5 C482.106768,67.5 483,68.3926228 483,69.4950893 L483,83.5049107 C483,84.6067681 482.107377,85.5 481.004911,85.5 L466.995089,85.5 C465.893232,85.5 465,84.6073772 465,83.5049107 L465,69.4950893 Z M444,69.4950893 L444,83.5049107 C444,84.0548349 444.445259,84.5 444.995089,84.5 L459.004911,84.5 C459.554835,84.5 460,84.054741 460,83.5049107 L460,69.4950893 C460,68.9451651 459.554741,68.5 459.004911,68.5 L444.995089,68.5 C444.445165,68.5 444,68.945259 444,69.4950893 Z M443,69.4950893 C443,68.3932319 443.892623,67.5 444.995089,67.5 L459.004911,67.5 C460.106768,67.5 461,68.3926228 461,69.4950893 L461,83.5049107 C461,84.6067681 460.107377,85.5 459.004911,85.5 L444.995089,85.5 C443.893232,85.5 443,84.6073772 443,83.5049107 L443,69.4950893 Z M422,69.4950893 L422,83.5049107 C422,84.0548349 422.445259,84.5 422.995089,84.5 L437.004911,84.5 C437.554835,84.5 438,84.054741 438,83.5049107 L438,69.4950893 C438,68.9451651 437.554741,68.5 437.004911,68.5 L422.995089,68.5 C422.445165,68.5 422,68.945259 422,69.4950893 Z M421,69.4950893 C421,68.3932319 421.892623,67.5 422.995089,67.5 L437.004911,67.5 C438.106768,67.5 439,68.3926228 439,69.4950893 L439,83.5049107 C439,84.6067681 438.107377,85.5 437.004911,85.5 L422.995089,85.5 C421.893232,85.5 421,84.6073772 421,83.5049107 L421,69.4950893 Z M400,69.4950893 L400,83.5049107 C400,84.0548349 400.445259,84.5 400.995089,84.5 L415.004911,84.5 C415.554835,84.5 416,84.054741 416,83.5049107 L416,69.4950893 C416,68.9451651 415.554741,68.5 415.004911,68.5 L400.995089,68.5 C400.445165,68.5 400,68.945259 400,69.4950893 Z M399,69.4950893 C399,68.3932319 399.892623,67.5 400.995089,67.5 L415.004911,67.5 C416.106768,67.5 417,68.3926228 417,69.4950893 L417,83.5049107 C417,84.6067681 416.107377,85.5 415.004911,85.5 L400.995089,85.5 C399.893232,85.5 399,84.6073772 399,83.5049107 L399,69.4950893 Z M378,69.4950893 L378,83.5049107 C378,84.0548349 378.445259,84.5 378.995089,84.5 L393.004911,84.5 C393.554835,84.5 394,84.054741 394,83.5049107 L394,69.4950893 C394,68.9451651 393.554741,68.5 393.004911,68.5 L378.995089,68.5 C378.445165,68.5 378,68.945259 378,69.4950893 Z M377,69.4950893 C377,68.3932319 377.892623,67.5 378.995089,67.5 L393.004911,67.5 C394.106768,67.5 395,68.3926228 395,69.4950893 L395,83.5049107 C395,84.6067681 394.107377,85.5 393.004911,85.5 L378.995089,85.5 C377.893232,85.5 377,84.6073772 377,83.5049107 L377,69.4950893 Z M356,69.4950893 L356,83.5049107 C356,84.0548349 356.445259,84.5 356.995089,84.5 L371.004911,84.5 C371.554835,84.5 372,84.054741 372,83.5049107 L372,69.4950893 C372,68.9451651 371.554741,68.5 371.004911,68.5 L356.995089,68.5 C356.445165,68.5 356,68.945259 356,69.4950893 Z M355,69.4950893 C355,68.3932319 355.892623,67.5 356.995089,67.5 L371.004911,67.5 C372.106768,67.5 373,68.3926228 373,69.4950893 L373,83.5049107 C373,84.6067681 372.107377,85.5 371.004911,85.5 L356.995089,85.5 C355.893232,85.5 355,84.6073772 355,83.5049107 L355,69.4950893 Z M334,69.4950893 L334,83.5049107 C334,84.0548349 334.445259,84.5 334.995089,84.5 L349.004911,84.5 C349.554835,84.5 350,84.054741 350,83.5049107 L350,69.4950893 C350,68.9451651 349.554741,68.5 349.004911,68.5 L334.995089,68.5 C334.445165,68.5 334,68.945259 334,69.4950893 Z M333,69.4950893 C333,68.3932319 333.892623,67.5 334.995089,67.5 L349.004911,67.5 C350.106768,67.5 351,68.3926228 351,69.4950893 L351,83.5049107 C351,84.6067681 350.107377,85.5 349.004911,85.5 L334.995089,85.5 C333.893232,85.5 333,84.6073772 333,83.5049107 L333,69.4950893 Z M312,69.4950893 L312,83.5049107 C312,84.0548349 312.445259,84.5 312.995089,84.5 L327.004911,84.5 C327.554835,84.5 328,84.054741 328,83.5049107 L328,69.4950893 C328,68.9451651 327.554741,68.5 327.004911,68.5 L312.995089,68.5 C312.445165,68.5 312,68.945259 312,69.4950893 Z M311,69.4950893 C311,68.3932319 311.892623,67.5 312.995089,67.5 L327.004911,67.5 C328.106768,67.5 329,68.3926228 329,69.4950893 L329,83.5049107 C329,84.6067681 328.107377,85.5 327.004911,85.5 L312.995089,85.5 C311.893232,85.5 311,84.6073772 311,83.5049107 L311,69.4950893 Z M290,69.4950893 L290,83.5049107 C290,84.0548349 290.445259,84.5 290.995089,84.5 L305.004911,84.5 C305.554835,84.5 306,84.054741 306,83.5049107 L306,69.4950893 C306,68.9451651 305.554741,68.5 305.004911,68.5 L290.995089,68.5 C290.445165,68.5 290,68.945259 290,69.4950893 Z M289,69.4950893 C289,68.3932319 289.892623,67.5 290.995089,67.5 L305.004911,67.5 C306.106768,67.5 307,68.3926228 307,69.4950893 L307,83.5049107 C307,84.6067681 306.107377,85.5 305.004911,85.5 L290.995089,85.5 C289.893232,85.5 289,84.6073772 289,83.5049107 L289,69.4950893 Z M268,69.4950893 L268,83.5049107 C268,84.0548349 268.445259,84.5 268.995089,84.5 L283.004911,84.5 C283.554835,84.5 284,84.054741 284,83.5049107 L284,69.4950893 C284,68.9451651 283.554741,68.5 283.004911,68.5 L268.995089,68.5 C268.445165,68.5 268,68.945259 268,69.4950893 Z M267,69.4950893 C267,68.3932319 267.892623,67.5 268.995089,67.5 L283.004911,67.5 C284.106768,67.5 285,68.3926228 285,69.4950893 L285,83.5049107 C285,84.6067681 284.107377,85.5 283.004911,85.5 L268.995089,85.5 C267.893232,85.5 267,84.6073772 267,83.5049107 L267,69.4950893 Z M246,69.4950893 L246,83.5049107 C246,84.0548349 246.445259,84.5 246.995089,84.5 L261.004911,84.5 C261.554835,84.5 262,84.054741 262,83.5049107 L262,69.4950893 C262,68.9451651 261.554741,68.5 261.004911,68.5 L246.995089,68.5 C246.445165,68.5 246,68.945259 246,69.4950893 Z M245,69.4950893 C245,68.3932319 245.892623,67.5 246.995089,67.5 L261.004911,67.5 C262.106768,67.5 263,68.3926228 263,69.4950893 L263,83.5049107 C263,84.6067681 262.107377,85.5 261.004911,85.5 L246.995089,85.5 C245.893232,85.5 245,84.6073772 245,83.5049107 L245,69.4950893 Z M204,69.4950893 L204,83.5049107 C204,84.0539627 204.447869,84.5 205.002859,84.5 L238.997141,84.5 C239.548902,84.5 240,84.0514475 240,83.5049107 L240,69.4950893 C240,68.9460373 239.552131,68.5 238.997141,68.5 L205.002859,68.5 C204.451098,68.5 204,68.9485525 204,69.4950893 Z M203,69.4950893 C203,68.3932319 203.901851,67.5 205.002859,67.5 L238.997141,67.5 C240.103289,67.5 241,68.3926228 241,69.4950893 L241,83.5049107 C241,84.6067681 240.098149,85.5 238.997141,85.5 L205.002859,85.5 C203.896711,85.5 203,84.6073772 203,83.5049107 L203,69.4950893 Z M481,47.4950893 L481,61.5049107 C481,62.0548349 481.445259,62.5 481.995089,62.5 L496.004911,62.5 C496.554835,62.5 497,62.054741 497,61.5049107 L497,47.4950893 C497,46.9451651 496.554741,46.5 496.004911,46.5 L481.995089,46.5 C481.445165,46.5 481,46.945259 481,47.4950893 Z M480,47.4950893 C480,46.3932319 480.892623,45.5 481.995089,45.5 L496.004911,45.5 C497.106768,45.5 498,46.3926228 498,47.4950893 L498,61.5049107 C498,62.6067681 497.107377,63.5 496.004911,63.5 L481.995089,63.5 C480.893232,63.5 480,62.6073772 480,61.5049107 L480,47.4950893 Z M459,47.4950893 L459,61.5049107 C459,62.0548349 459.445259,62.5 459.995089,62.5 L474.004911,62.5 C474.554835,62.5 475,62.054741 475,61.5049107 L475,47.4950893 C475,46.9451651 474.554741,46.5 474.004911,46.5 L459.995089,46.5 C459.445165,46.5 459,46.945259 459,47.4950893 Z M458,47.4950893 C458,46.3932319 458.892623,45.5 459.995089,45.5 L474.004911,45.5 C475.106768,45.5 476,46.3926228 476,47.4950893 L476,61.5049107 C476,62.6067681 475.107377,63.5 474.004911,63.5 L459.995089,63.5 C458.893232,63.5 458,62.6073772 458,61.5049107 L458,47.4950893 Z M437,47.4950893 L437,61.5049107 C437,62.0548349 437.445259,62.5 437.995089,62.5 L452.004911,62.5 C452.554835,62.5 453,62.054741 453,61.5049107 L453,47.4950893 C453,46.9451651 452.554741,46.5 452.004911,46.5 L437.995089,46.5 C437.445165,46.5 437,46.945259 437,47.4950893 Z M436,47.4950893 C436,46.3932319 436.892623,45.5 437.995089,45.5 L452.004911,45.5 C453.106768,45.5 454,46.3926228 454,47.4950893 L454,61.5049107 C454,62.6067681 453.107377,63.5 452.004911,63.5 L437.995089,63.5 C436.893232,63.5 436,62.6073772 436,61.5049107 L436,47.4950893 Z M415,47.4950893 L415,61.5049107 C415,62.0548349 415.445259,62.5 415.995089,62.5 L430.004911,62.5 C430.554835,62.5 431,62.054741 431,61.5049107 L431,47.4950893 C431,46.9451651 430.554741,46.5 430.004911,46.5 L415.995089,46.5 C415.445165,46.5 415,46.945259 415,47.4950893 Z M414,47.4950893 C414,46.3932319 414.892623,45.5 415.995089,45.5 L430.004911,45.5 C431.106768,45.5 432,46.3926228 432,47.4950893 L432,61.5049107 C432,62.6067681 431.107377,63.5 430.004911,63.5 L415.995089,63.5 C414.893232,63.5 414,62.6073772 414,61.5049107 L414,47.4950893 Z M393,47.4950893 L393,61.5049107 C393,62.0548349 393.445259,62.5 393.995089,62.5 L408.004911,62.5 C408.554835,62.5 409,62.054741 409,61.5049107 L409,47.4950893 C409,46.9451651 408.554741,46.5 408.004911,46.5 L393.995089,46.5 C393.445165,46.5 393,46.945259 393,47.4950893 Z M392,47.4950893 C392,46.3932319 392.892623,45.5 393.995089,45.5 L408.004911,45.5 C409.106768,45.5 410,46.3926228 410,47.4950893 L410,61.5049107 C410,62.6067681 409.107377,63.5 408.004911,63.5 L393.995089,63.5 C392.893232,63.5 392,62.6073772 392,61.5049107 L392,47.4950893 Z M371,47.4950893 L371,61.5049107 C371,62.0548349 371.445259,62.5 371.995089,62.5 L386.004911,62.5 C386.554835,62.5 387,62.054741 387,61.5049107 L387,47.4950893 C387,46.9451651 386.554741,46.5 386.004911,46.5 L371.995089,46.5 C371.445165,46.5 371,46.945259 371,47.4950893 Z M370,47.4950893 C370,46.3932319 370.892623,45.5 371.995089,45.5 L386.004911,45.5 C387.106768,45.5 388,46.3926228 388,47.4950893 L388,61.5049107 C388,62.6067681 387.107377,63.5 386.004911,63.5 L371.995089,63.5 C370.893232,63.5 370,62.6073772 370,61.5049107 L370,47.4950893 Z M349,47.4950893 L349,61.5049107 C349,62.0548349 349.445259,62.5 349.995089,62.5 L364.004911,62.5 C364.554835,62.5 365,62.054741 365,61.5049107 L365,47.4950893 C365,46.9451651 364.554741,46.5 364.004911,46.5 L349.995089,46.5 C349.445165,46.5 349,46.945259 349,47.4950893 Z M348,47.4950893 C348,46.3932319 348.892623,45.5 349.995089,45.5 L364.004911,45.5 C365.106768,45.5 366,46.3926228 366,47.4950893 L366,61.5049107 C366,62.6067681 365.107377,63.5 364.004911,63.5 L349.995089,63.5 C348.893232,63.5 348,62.6073772 348,61.5049107 L348,47.4950893 Z M327,47.4950893 L327,61.5049107 C327,62.0548349 327.445259,62.5 327.995089,62.5 L342.004911,62.5 C342.554835,62.5 343,62.054741 343,61.5049107 L343,47.4950893 C343,46.9451651 342.554741,46.5 342.004911,46.5 L327.995089,46.5 C327.445165,46.5 327,46.945259 327,47.4950893 Z M326,47.4950893 C326,46.3932319 326.892623,45.5 327.995089,45.5 L342.004911,45.5 C343.106768,45.5 344,46.3926228 344,47.4950893 L344,61.5049107 C344,62.6067681 343.107377,63.5 342.004911,63.5 L327.995089,63.5 C326.893232,63.5 326,62.6073772 326,61.5049107 L326,47.4950893 Z M305,47.4950893 L305,61.5049107 C305,62.0548349 305.445259,62.5 305.995089,62.5 L320.004911,62.5 C320.554835,62.5 321,62.054741 321,61.5049107 L321,47.4950893 C321,46.9451651 320.554741,46.5 320.004911,46.5 L305.995089,46.5 C305.445165,46.5 305,46.945259 305,47.4950893 Z M304,47.4950893 C304,46.3932319 304.892623,45.5 305.995089,45.5 L320.004911,45.5 C321.106768,45.5 322,46.3926228 322,47.4950893 L322,61.5049107 C322,62.6067681 321.107377,63.5 320.004911,63.5 L305.995089,63.5 C304.893232,63.5 304,62.6073772 304,61.5049107 L304,47.4950893 Z M283,47.4950893 L283,61.5049107 C283,62.0548349 283.445259,62.5 283.995089,62.5 L298.004911,62.5 C298.554835,62.5 299,62.054741 299,61.5049107 L299,47.4950893 C299,46.9451651 298.554741,46.5 298.004911,46.5 L283.995089,46.5 C283.445165,46.5 283,46.945259 283,47.4950893 Z M282,47.4950893 C282,46.3932319 282.892623,45.5 283.995089,45.5 L298.004911,45.5 C299.106768,45.5 300,46.3926228 300,47.4950893 L300,61.5049107 C300,62.6067681 299.107377,63.5 298.004911,63.5 L283.995089,63.5 C282.893232,63.5 282,62.6073772 282,61.5049107 L282,47.4950893 Z M261,47.4950893 L261,61.5049107 C261,62.0548349 261.445259,62.5 261.995089,62.5 L276.004911,62.5 C276.554835,62.5 277,62.054741 277,61.5049107 L277,47.4950893 C277,46.9451651 276.554741,46.5 276.004911,46.5 L261.995089,46.5 C261.445165,46.5 261,46.945259 261,47.4950893 Z M260,47.4950893 C260,46.3932319 260.892623,45.5 261.995089,45.5 L276.004911,45.5 C277.106768,45.5 278,46.3926228 278,47.4950893 L278,61.5049107 C278,62.6067681 277.107377,63.5 276.004911,63.5 L261.995089,63.5 C260.893232,63.5 260,62.6073772 260,61.5049107 L260,47.4950893 Z M239,47.4950893 L239,61.5049107 C239,62.0548349 239.445259,62.5 239.995089,62.5 L254.004911,62.5 C254.554835,62.5 255,62.054741 255,61.5049107 L255,47.4950893 C255,46.9451651 254.554741,46.5 254.004911,46.5 L239.995089,46.5 C239.445165,46.5 239,46.945259 239,47.4950893 Z M238,47.4950893 C238,46.3932319 238.892623,45.5 239.995089,45.5 L254.004911,45.5 C255.106768,45.5 256,46.3926228 256,47.4950893 L256,61.5049107 C256,62.6067681 255.107377,63.5 254.004911,63.5 L239.995089,63.5 C238.893232,63.5 238,62.6073772 238,61.5049107 L238,47.4950893 Z M204,47.4950893 L204,61.5049107 C204,62.0544842 204.446308,62.5 204.998214,62.5 L232.001786,62.5 C232.553604,62.5 233,62.0542566 233,61.5049107 L233,47.4950893 C233,46.9455158 232.553692,46.5 232.001786,46.5 L204.998214,46.5 C204.446396,46.5 204,46.9457434 204,47.4950893 Z M203,47.4950893 C203,46.3932319 203.894338,45.5 204.998214,45.5 L232.001786,45.5 C233.105369,45.5 234,46.3926228 234,47.4950893 L234,61.5049107 C234,62.6067681 233.105662,63.5 232.001786,63.5 L204.998214,63.5 C203.894631,63.5 203,62.6073772 203,61.5049107 L203,47.4950893 Z M503,47.491155 L503,67.5 L502,66.5 L534,66.5 L533,67.5 L533,47.491155 C533,46.9439103 532.553451,46.5 531.998257,46.5 L504.001743,46.5 C503.443298,46.5 503,46.9420129 503,47.491155 Z M502,47.491155 C502,46.3914705 502.889262,45.5 504.001743,45.5 L531.998257,45.5 C533.103789,45.5 534,46.3896739 534,47.491155 L534,67.5 L502,67.5 L502,47.491155 Z M477,25.4950893 L477,39.5049107 C477,40.0548349 477.445259,40.5 477.995089,40.5 L492.004911,40.5 C492.554835,40.5 493,40.054741 493,39.5049107 L493,25.4950893 C493,24.9451651 492.554741,24.5 492.004911,24.5 L477.995089,24.5 C477.445165,24.5 477,24.945259 477,25.4950893 Z M476,25.4950893 C476,24.3932319 476.892623,23.5 477.995089,23.5 L492.004911,23.5 C493.106768,23.5 494,24.3926228 494,25.4950893 L494,39.5049107 C494,40.6067681 493.107377,41.5 492.004911,41.5 L477.995089,41.5 C476.893232,41.5 476,40.6073772 476,39.5049107 L476,25.4950893 Z M455,25.4950893 L455,39.5049107 C455,40.0548349 455.445259,40.5 455.995089,40.5 L470.004911,40.5 C470.554835,40.5 471,40.054741 471,39.5049107 L471,25.4950893 C471,24.9451651 470.554741,24.5 470.004911,24.5 L455.995089,24.5 C455.445165,24.5 455,24.945259 455,25.4950893 Z M454,25.4950893 C454,24.3932319 454.892623,23.5 455.995089,23.5 L470.004911,23.5 C471.106768,23.5 472,24.3926228 472,25.4950893 L472,39.5049107 C472,40.6067681 471.107377,41.5 470.004911,41.5 L455.995089,41.5 C454.893232,41.5 454,40.6073772 454,39.5049107 L454,25.4950893 Z M433,25.4950893 L433,39.5049107 C433,40.0548349 433.445259,40.5 433.995089,40.5 L448.004911,40.5 C448.554835,40.5 449,40.054741 449,39.5049107 L449,25.4950893 C449,24.9451651 448.554741,24.5 448.004911,24.5 L433.995089,24.5 C433.445165,24.5 433,24.945259 433,25.4950893 Z M432,25.4950893 C432,24.3932319 432.892623,23.5 433.995089,23.5 L448.004911,23.5 C449.106768,23.5 450,24.3926228 450,25.4950893 L450,39.5049107 C450,40.6067681 449.107377,41.5 448.004911,41.5 L433.995089,41.5 C432.893232,41.5 432,40.6073772 432,39.5049107 L432,25.4950893 Z M411,25.4950893 L411,39.5049107 C411,40.0548349 411.445259,40.5 411.995089,40.5 L426.004911,40.5 C426.554835,40.5 427,40.054741 427,39.5049107 L427,25.4950893 C427,24.9451651 426.554741,24.5 426.004911,24.5 L411.995089,24.5 C411.445165,24.5 411,24.945259 411,25.4950893 Z M410,25.4950893 C410,24.3932319 410.892623,23.5 411.995089,23.5 L426.004911,23.5 C427.106768,23.5 428,24.3926228 428,25.4950893 L428,39.5049107 C428,40.6067681 427.107377,41.5 426.004911,41.5 L411.995089,41.5 C410.893232,41.5 410,40.6073772 410,39.5049107 L410,25.4950893 Z M389,25.4950893 L389,39.5049107 C389,40.0548349 389.445259,40.5 389.995089,40.5 L404.004911,40.5 C404.554835,40.5 405,40.054741 405,39.5049107 L405,25.4950893 C405,24.9451651 404.554741,24.5 404.004911,24.5 L389.995089,24.5 C389.445165,24.5 389,24.945259 389,25.4950893 Z M388,25.4950893 C388,24.3932319 388.892623,23.5 389.995089,23.5 L404.004911,23.5 C405.106768,23.5 406,24.3926228 406,25.4950893 L406,39.5049107 C406,40.6067681 405.107377,41.5 404.004911,41.5 L389.995089,41.5 C388.893232,41.5 388,40.6073772 388,39.5049107 L388,25.4950893 Z M367,25.4950893 L367,39.5049107 C367,40.0548349 367.445259,40.5 367.995089,40.5 L382.004911,40.5 C382.554835,40.5 383,40.054741 383,39.5049107 L383,25.4950893 C383,24.9451651 382.554741,24.5 382.004911,24.5 L367.995089,24.5 C367.445165,24.5 367,24.945259 367,25.4950893 Z M366,25.4950893 C366,24.3932319 366.892623,23.5 367.995089,23.5 L382.004911,23.5 C383.106768,23.5 384,24.3926228 384,25.4950893 L384,39.5049107 C384,40.6067681 383.107377,41.5 382.004911,41.5 L367.995089,41.5 C366.893232,41.5 366,40.6073772 366,39.5049107 L366,25.4950893 Z M345,25.4950893 L345,39.5049107 C345,40.0548349 345.445259,40.5 345.995089,40.5 L360.004911,40.5 C360.554835,40.5 361,40.054741 361,39.5049107 L361,25.4950893 C361,24.9451651 360.554741,24.5 360.004911,24.5 L345.995089,24.5 C345.445165,24.5 345,24.945259 345,25.4950893 Z M344,25.4950893 C344,24.3932319 344.892623,23.5 345.995089,23.5 L360.004911,23.5 C361.106768,23.5 362,24.3926228 362,25.4950893 L362,39.5049107 C362,40.6067681 361.107377,41.5 360.004911,41.5 L345.995089,41.5 C344.893232,41.5 344,40.6073772 344,39.5049107 L344,25.4950893 Z M323,25.4950893 L323,39.5049107 C323,40.0548349 323.445259,40.5 323.995089,40.5 L338.004911,40.5 C338.554835,40.5 339,40.054741 339,39.5049107 L339,25.4950893 C339,24.9451651 338.554741,24.5 338.004911,24.5 L323.995089,24.5 C323.445165,24.5 323,24.945259 323,25.4950893 Z M322,25.4950893 C322,24.3932319 322.892623,23.5 323.995089,23.5 L338.004911,23.5 C339.106768,23.5 340,24.3926228 340,25.4950893 L340,39.5049107 C340,40.6067681 339.107377,41.5 338.004911,41.5 L323.995089,41.5 C322.893232,41.5 322,40.6073772 322,39.5049107 L322,25.4950893 Z M301,25.4950893 L301,39.5049107 C301,40.0548349 301.445259,40.5 301.995089,40.5 L316.004911,40.5 C316.554835,40.5 317,40.054741 317,39.5049107 L317,25.4950893 C317,24.9451651 316.554741,24.5 316.004911,24.5 L301.995089,24.5 C301.445165,24.5 301,24.945259 301,25.4950893 Z M300,25.4950893 C300,24.3932319 300.892623,23.5 301.995089,23.5 L316.004911,23.5 C317.106768,23.5 318,24.3926228 318,25.4950893 L318,39.5049107 C318,40.6067681 317.107377,41.5 316.004911,41.5 L301.995089,41.5 C300.893232,41.5 300,40.6073772 300,39.5049107 L300,25.4950893 Z M279,25.4950893 L279,39.5049107 C279,40.0548349 279.445259,40.5 279.995089,40.5 L294.004911,40.5 C294.554835,40.5 295,40.054741 295,39.5049107 L295,25.4950893 C295,24.9451651 294.554741,24.5 294.004911,24.5 L279.995089,24.5 C279.445165,24.5 279,24.945259 279,25.4950893 Z M278,25.4950893 C278,24.3932319 278.892623,23.5 279.995089,23.5 L294.004911,23.5 C295.106768,23.5 296,24.3926228 296,25.4950893 L296,39.5049107 C296,40.6067681 295.107377,41.5 294.004911,41.5 L279.995089,41.5 C278.893232,41.5 278,40.6073772 278,39.5049107 L278,25.4950893 Z M257,25.4950893 L257,39.5049107 C257,40.0548349 257.445259,40.5 257.995089,40.5 L272.004911,40.5 C272.554835,40.5 273,40.054741 273,39.5049107 L273,25.4950893 C273,24.9451651 272.554741,24.5 272.004911,24.5 L257.995089,24.5 C257.445165,24.5 257,24.945259 257,25.4950893 Z M256,25.4950893 C256,24.3932319 256.892623,23.5 257.995089,23.5 L272.004911,23.5 C273.106768,23.5 274,24.3926228 274,25.4950893 L274,39.5049107 C274,40.6067681 273.107377,41.5 272.004911,41.5 L257.995089,41.5 C256.893232,41.5 256,40.6073772 256,39.5049107 L256,25.4950893 Z M235,25.4950893 L235,39.5049107 C235,40.0548349 235.445259,40.5 235.995089,40.5 L250.004911,40.5 C250.554835,40.5 251,40.054741 251,39.5049107 L251,25.4950893 C251,24.9451651 250.554741,24.5 250.004911,24.5 L235.995089,24.5 C235.445165,24.5 235,24.945259 235,25.4950893 Z M234,25.4950893 C234,24.3932319 234.892623,23.5 235.995089,23.5 L250.004911,23.5 C251.106768,23.5 252,24.3926228 252,25.4950893 L252,39.5049107 C252,40.6067681 251.107377,41.5 250.004911,41.5 L235.995089,41.5 C234.893232,41.5 234,40.6073772 234,39.5049107 L234,25.4950893 Z M204,25.4950893 L204,39.5049107 C204,40.0534607 204.449374,40.5 205.00733,40.5 L227.99267,40.5 C228.550584,40.5 229,40.0532668 229,39.5049107 L229,25.4950893 C229,24.9465393 228.550626,24.5 227.99267,24.5 L205.00733,24.5 C204.449416,24.5 204,24.9467332 204,25.4950893 Z M203,25.4950893 C203,24.3932319 203.898338,23.5 205.00733,23.5 L227.99267,23.5 C229.101288,23.5 230,24.3926228 230,25.4950893 L230,39.5049107 C230,40.6067681 229.101662,41.5 227.99267,41.5 L205.00733,41.5 C203.898712,41.5 203,40.6073772 203,39.5049107 L203,25.4950893 Z M499,25.4950893 L499,39.5049107 C499,40.0543165 499.446809,40.5 499.999707,40.5 L532.000293,40.5 C532.556054,40.5 533,40.0562508 533,39.5049107 L533,25.4950893 C533,24.9456835 532.553191,24.5 532.000293,24.5 L499.999707,24.5 C499.443946,24.5 499,24.9437492 499,25.4950893 Z M498,25.4950893 C498,24.3932319 498.889893,23.5 499.999707,23.5 L532.000293,23.5 C533.104701,23.5 534,24.3926228 534,25.4950893 L534,39.5049107 C534,40.6067681 533.110107,41.5 532.000293,41.5 L499.999707,41.5 C498.895299,41.5 498,40.6073772 498,39.5049107 L498,25.4950893 L498,25.4950893 Z" id="Shape" fill="url(#linearGradient-1)" sketch:type="MSShapeGroup"></path>
                <path d="M43.012,203.5 L43.012,166.618 L42.796,166.618 L25.894,203.5 L24.922,203.5 L8.074,166.618 L7.912,166.618 L7.912,203.5 L6.724,203.5 L6.724,165.268 L8.83,165.268 L25.462,201.772 L42.094,165.268 L44.2,165.268 L44.2,203.5 L43.012,203.5 Z M76.816,194.32 C76.816,195.940008 76.5010031,197.388994 75.871,198.667 C75.2409968,199.945006 74.4040052,201.024996 73.36,201.907 C72.3159948,202.789004 71.0830071,203.454998 69.661,203.905 C68.2389929,204.355002 66.7540077,204.58 65.206,204.58 C62.8299881,204.58 60.6610098,204.157004 58.699,203.311 C56.7369902,202.464996 55.1080065,201.322007 53.812,199.882 L54.73,199.072 C56.0980068,200.548007 57.6909909,201.654996 59.509,202.393 C61.3270091,203.131004 63.2079903,203.5 65.152,203.5 C66.556007,203.5 67.8879937,203.293002 69.148,202.879 C70.4080063,202.464998 71.5239951,201.871004 72.496,201.097 C73.4680049,200.322996 74.2329972,199.369006 74.791,198.235 C75.3490028,197.100994 75.628,195.796007 75.628,194.32 C75.628,192.843993 75.3220031,191.602005 74.71,190.594 C74.0979969,189.585995 73.3060049,188.722004 72.334,188.002 C71.3619951,187.281996 70.2550062,186.679002 69.013,186.193 C67.7709938,185.706998 66.5200063,185.266002 65.26,184.87 C63.6759921,184.365997 62.2270066,183.835003 60.913,183.277 C59.5989934,182.718997 58.4650048,182.035004 57.511,181.225 C56.5569952,180.414996 55.8190026,179.443006 55.297,178.309 C54.7749974,177.174994 54.514,175.798008 54.514,174.178 C54.514,172.593992 54.8289968,171.181006 55.459,169.939 C56.0890031,168.696994 56.9439946,167.653004 58.024,166.807 C59.1040054,165.960996 60.3549929,165.313002 61.777,164.863 C63.1990071,164.412998 64.7019921,164.188 66.286,164.188 C68.2300097,164.188 70.0749913,164.556996 71.821,165.295 C73.5670087,166.033004 74.9979944,167.085993 76.114,168.454 L75.196,169.264 C74.187995,168.003994 72.9010078,167.023004 71.335,166.321 C69.7689922,165.618996 68.0680092,165.268 66.232,165.268 C64.9359935,165.268 63.6670062,165.447998 62.425,165.808 C61.1829938,166.168002 60.058005,166.716996 59.05,167.455 C58.041995,168.193004 57.2320031,169.119994 56.62,170.236 C56.0079969,171.352006 55.702,172.665992 55.702,174.178 C55.702,175.654007 55.9719973,176.904995 56.512,177.931 C57.0520027,178.957005 57.7719955,179.829996 58.672,180.55 C59.5720045,181.270004 60.5889943,181.863998 61.723,182.332 C62.8570057,182.800002 64.0179941,183.231998 65.206,183.628 C66.8260081,184.168003 68.337993,184.716997 69.742,185.275 C71.146007,185.833003 72.3789947,186.507996 73.441,187.3 C74.5030053,188.092004 75.330997,189.054994 75.925,190.189 C76.519003,191.323006 76.816,192.699992 76.816,194.32 L76.816,194.32 Z M86.428,203.5 L86.428,165.268 L87.616,165.268 L87.616,203.5 L86.428,203.5 Z M113.806,182.818 L133.03,165.268 L134.758,165.268 L115.318,182.818 L135.73,203.5 L134.056,203.5 L113.806,182.926 L113.752,182.926 L113.752,203.5 L112.564,203.5 L112.564,165.268 L113.752,165.268 L113.752,182.818 L113.806,182.818 Z M140.266,190.81 C140.266,192.322008 140.490998,193.815993 140.941,195.292 C141.391002,196.768007 142.074995,198.090994 142.993,199.261 C143.911005,200.431006 145.071993,201.375996 146.476,202.096 C147.880007,202.816004 149.53599,203.176 151.444,203.176 C153.38801,203.176 155.115992,202.789004 156.628,202.015 C158.140008,201.240996 159.453994,200.116007 160.57,198.64 L161.434,199.396 C160.209994,200.980008 158.779008,202.185996 157.141,203.014 C155.502992,203.842004 153.604011,204.256 151.444,204.256 C149.607991,204.256 147.934008,203.923003 146.422,203.257 C144.909992,202.590997 143.605005,201.664006 142.507,200.476 C141.408995,199.287994 140.563003,197.866008 139.969,196.21 C139.374997,194.553992 139.078,192.75401 139.078,190.81 C139.078,188.937991 139.383997,187.210008 139.996,185.626 C140.608003,184.041992 141.444995,182.674006 142.507,181.522 C143.569005,180.369994 144.819993,179.479003 146.26,178.849 C147.700007,178.218997 149.247992,177.904 150.904,177.904 C152.84801,177.904 154.539993,178.245997 155.98,178.93 C157.420007,179.614003 158.616995,180.513994 159.571,181.63 C160.525005,182.746006 161.235998,184.014993 161.704,185.437 C162.172002,186.859007 162.406,188.307993 162.406,189.784 L162.406,190.81 L140.266,190.81 Z M161.272,189.784 C161.236,188.163992 160.957003,186.688007 160.435,185.356 C159.912997,184.023993 159.202004,182.881005 158.302,181.927 C157.401995,180.972995 156.322006,180.235003 155.062,179.713 C153.801994,179.190997 152.398008,178.93 150.85,178.93 C148.977991,178.93 147.376007,179.316996 146.044,180.091 C144.711993,180.865004 143.623004,181.818994 142.777,182.953 C141.930996,184.087006 141.310002,185.274994 140.914,186.517 C140.517998,187.759006 140.32,188.847995 140.32,189.784 L161.272,189.784 Z M175.258,211.708 C174.681997,213.256008 173.917005,214.452996 172.963,215.299 C172.008995,216.145004 170.776008,216.568 169.264,216.568 C168.939998,216.568 168.562002,216.532 168.13,216.46 C167.697998,216.388 167.338001,216.298001 167.05,216.19 L167.374,215.164 C167.590001,215.236 167.886998,215.308 168.265,215.38 C168.643002,215.452 169.011998,215.488 169.372,215.488 C170.128004,215.488 170.784997,215.344001 171.343,215.056 C171.901003,214.767999 172.377998,214.399002 172.774,213.949 C173.170002,213.498998 173.502999,212.986003 173.773,212.41 C174.043001,211.833997 174.285999,211.258003 174.502,210.682 L176.878,204.202 L167.05,178.66 L168.346,178.66 L177.472,202.852 L186.274,178.66 L187.57,178.66 L175.258,211.708 Z M195.724,185.41 C196.804005,182.925988 198.34299,181.054006 200.341,179.794 C202.33901,178.533994 204.525988,177.904 206.902,177.904 C208.738009,177.904 210.420992,178.236997 211.951,178.903 C213.481008,179.569003 214.794995,180.486994 215.893,181.657 C216.991005,182.827006 217.836997,184.221992 218.431,185.842 C219.025003,187.462008 219.322,189.22599 219.322,191.134 C219.322,193.006009 219.016003,194.742992 218.404,196.345 C217.791997,197.947008 216.937005,199.332994 215.839,200.503 C214.740995,201.673006 213.427008,202.590997 211.897,203.257 C210.366992,203.923003 208.702009,204.256 206.902,204.256 C205.713994,204.256 204.553006,204.094002 203.419,203.77 C202.284994,203.445998 201.232005,202.969003 200.26,202.339 C199.287995,201.708997 198.406004,200.935005 197.614,200.017 C196.821996,199.098995 196.192002,198.028006 195.724,196.804 L195.562,196.804 L195.562,203.5 L194.374,203.5 L194.374,162.676 L195.562,162.676 L195.562,185.41 L195.724,185.41 Z M218.134,191.134 C218.134,189.513992 217.873003,187.966007 217.351,186.49 C216.828997,185.013993 216.082005,183.718006 215.11,182.602 C214.137995,181.485994 212.959007,180.595003 211.573,179.929 C210.186993,179.262997 208.630009,178.93 206.902,178.93 C205.245992,178.93 203.725007,179.253997 202.339,179.902 C200.952993,180.550003 199.756005,181.422995 198.748,182.521 C197.739995,183.619005 196.948003,184.905993 196.372,186.382 C195.795997,187.858007 195.508,189.423992 195.508,191.08 C195.508,192.736008 195.795997,194.301993 196.372,195.778 C196.948003,197.254007 197.739995,198.540995 198.748,199.639 C199.756005,200.737005 200.952993,201.609997 202.339,202.258 C203.725007,202.906003 205.245992,203.23 206.902,203.23 C208.630009,203.23 210.186993,202.906003 211.573,202.258 C212.959007,201.609997 214.137995,200.737005 215.11,199.639 C216.082005,198.540995 216.828997,197.254007 217.351,195.778 C217.873003,194.301993 218.134,192.754008 218.134,191.134 L218.134,191.134 Z M251.992,191.026 C251.992,192.97001 251.677003,194.751992 251.047,196.372 C250.416997,197.992008 249.526006,199.386994 248.374,200.557 C247.221994,201.727006 245.845008,202.635997 244.243,203.284 C242.640992,203.932003 240.88601,204.256 238.978,204.256 C237.06999,204.256 235.324008,203.932003 233.74,203.284 C232.155992,202.635997 230.788006,201.727006 229.636,200.557 C228.483994,199.386994 227.593003,197.992008 226.963,196.372 C226.332997,194.751992 226.018,192.97001 226.018,191.026 C226.018,189.08199 226.332997,187.309008 226.963,185.707 C227.593003,184.104992 228.483994,182.728006 229.636,181.576 C230.788006,180.423994 232.155992,179.524003 233.74,178.876 C235.324008,178.227997 237.06999,177.904 238.978,177.904 C240.88601,177.904 242.640992,178.227997 244.243,178.876 C245.845008,179.524003 247.221994,180.423994 248.374,181.576 C249.526006,182.728006 250.416997,184.104992 251.047,185.707 C251.677003,187.309008 251.992,189.08199 251.992,191.026 L251.992,191.026 Z M250.804,191.026 C250.804,189.369992 250.534003,187.804007 249.994,186.328 C249.453997,184.851993 248.671005,183.565005 247.645,182.467 C246.618995,181.368995 245.377007,180.505003 243.919,179.875 C242.460993,179.244997 240.814009,178.93 238.978,178.93 C237.141991,178.93 235.504007,179.244997 234.064,179.875 C232.623993,180.505003 231.391005,181.368995 230.365,182.467 C229.338995,183.565005 228.556003,184.851993 228.016,186.328 C227.475997,187.804007 227.206,189.369992 227.206,191.026 C227.206,192.718008 227.475997,194.301993 228.016,195.778 C228.556003,197.254007 229.338995,198.540995 230.365,199.639 C231.391005,200.737005 232.623993,201.609997 234.064,202.258 C235.504007,202.906003 237.141991,203.23 238.978,203.23 C240.814009,203.23 242.460993,202.906003 243.919,202.258 C245.377007,201.609997 246.618995,200.737005 247.645,199.639 C248.671005,198.540995 249.453997,197.254007 249.994,195.778 C250.534003,194.301993 250.804,192.718008 250.804,191.026 L250.804,191.026 Z M277.912,197.884 C277.912,198.820005 277.957,199.818995 278.047,200.881 C278.137,201.943005 278.235999,202.815997 278.344,203.5 L277.21,203.5 C277.138,203.139998 277.084,202.699003 277.048,202.177 C277.012,201.654997 276.967,201.115003 276.913,200.557 C276.859,199.998997 276.823,199.450003 276.805,198.91 C276.787,198.369997 276.778,197.920002 276.778,197.56 L276.616,197.56 C275.895996,199.828011 274.654009,201.510995 272.89,202.609 C271.125991,203.707005 269.23601,204.256 267.22,204.256 C266.211995,204.256 265.213005,204.112001 264.223,203.824 C263.232995,203.535999 262.342004,203.104003 261.55,202.528 C260.757996,201.951997 260.119002,201.214004 259.633,200.314 C259.146998,199.413995 258.904,198.352006 258.904,197.128 C258.904,195.363991 259.362995,193.942005 260.281,192.862 C261.199005,191.781995 262.341993,190.945003 263.71,190.351 C265.078007,189.756997 266.544992,189.370001 268.111,189.19 C269.677008,189.009999 271.107994,188.92 272.404,188.92 L276.724,188.92 L276.724,186.922 C276.724,184.149986 275.986007,182.125006 274.51,180.847 C273.033993,179.568994 271.108012,178.93 268.732,178.93 C267.255993,178.93 265.879006,179.199997 264.601,179.74 C263.322994,180.280003 262.180005,180.999996 261.172,181.9 L260.524,180.982 C261.676006,179.973995 262.980993,179.209003 264.439,178.687 C265.897007,178.164997 267.327993,177.904 268.732,177.904 C271.576014,177.904 273.816992,178.632993 275.455,180.091 C277.093008,181.549007 277.912,183.843984 277.912,186.976 L277.912,197.884 Z M276.724,189.946 L272.89,189.946 C271.521993,189.946 270.082008,190.026999 268.57,190.189 C267.057992,190.351001 265.672006,190.683997 264.412,191.188 C263.151994,191.692003 262.117004,192.411995 261.307,193.348 C260.496996,194.284005 260.092,195.543992 260.092,197.128 C260.092,198.280006 260.316998,199.242996 260.767,200.017 C261.217002,200.791004 261.792996,201.411998 262.495,201.88 C263.197004,202.348002 263.970996,202.689999 264.817,202.906 C265.663004,203.122001 266.463996,203.23 267.22,203.23 C269.056009,203.23 270.585994,202.888003 271.81,202.204 C273.034006,201.519997 274.014996,200.647005 274.753,199.585 C275.491004,198.522995 276.003999,197.353006 276.292,196.075 C276.580001,194.796994 276.724,193.546006 276.724,192.322 L276.724,189.946 Z M289.9,185.194 C290.620004,182.601987 291.771992,180.739006 293.356,179.605 C294.940008,178.470994 296.649991,177.904 298.486,177.904 L298.972,177.904 C299.116001,177.904 299.277999,177.922 299.458,177.958 L299.458,178.984 C299.313999,178.948 299.179001,178.93 299.053,178.93 L298.756,178.93 C297.171992,178.93 295.822006,179.280996 294.706,179.983 C293.589994,180.685004 292.672004,181.602994 291.952,182.737 C291.231996,183.871006 290.701002,185.130993 290.359,186.517 C290.016998,187.903007 289.846,189.279993 289.846,190.648 L289.846,203.5 L288.658,203.5 L288.658,184.924 C288.658,184.527998 288.649,184.042003 288.631,183.466 C288.613,182.889997 288.595,182.305003 288.577,181.711 C288.559,181.116997 288.532,180.550003 288.496,180.01 C288.46,179.469997 288.424,179.020002 288.388,178.66 L289.576,178.66 C289.612,179.020002 289.639,179.469997 289.657,180.01 C289.675,180.550003 289.693,181.134997 289.711,181.765 C289.729,182.395003 289.747,183.006997 289.765,183.601 C289.783,184.195003 289.792,184.725998 289.792,185.194 L289.9,185.194 Z M326.242,162.676 L327.43,162.676 L327.43,203.5 L326.242,203.5 L326.242,196.804 L326.08,196.804 C324.999995,199.252012 323.46101,201.105994 321.463,202.366 C319.46499,203.626006 317.278012,204.256 314.902,204.256 C313.101991,204.256 311.437008,203.923003 309.907,203.257 C308.376992,202.590997 307.063005,201.673006 305.965,200.503 C304.866995,199.332994 304.012003,197.947008 303.4,196.345 C302.787997,194.742992 302.482,193.006009 302.482,191.134 C302.482,189.261991 302.787997,187.516008 303.4,185.896 C304.012003,184.275992 304.866995,182.872006 305.965,181.684 C307.063005,180.495994 308.376992,179.569003 309.907,178.903 C311.437008,178.236997 313.101991,177.904 314.902,177.904 C317.278012,177.904 319.46499,178.533994 321.463,179.794 C323.46101,181.054006 324.999995,182.925988 326.08,185.41 L326.242,185.41 L326.242,162.676 Z M303.67,191.134 C303.67,192.754008 303.930997,194.301993 304.453,195.778 C304.975003,197.254007 305.721995,198.540995 306.694,199.639 C307.666005,200.737005 308.844993,201.609997 310.231,202.258 C311.617007,202.906003 313.173991,203.23 314.902,203.23 C316.558008,203.23 318.078993,202.906003 319.465,202.258 C320.851007,201.609997 322.047995,200.737005 323.056,199.639 C324.064005,198.540995 324.855997,197.254007 325.432,195.778 C326.008003,194.301993 326.296,192.736008 326.296,191.08 C326.296,189.423992 326.008003,187.858007 325.432,186.382 C324.855997,184.905993 324.064005,183.619005 323.056,182.521 C322.047995,181.422995 320.851007,180.550003 319.465,179.902 C318.078993,179.253997 316.558008,178.93 314.902,178.93 C313.173991,178.93 311.617007,179.262997 310.231,179.929 C308.844993,180.595003 307.666005,181.485994 306.694,182.602 C305.721995,183.718006 304.975003,185.013993 304.453,186.49 C303.930997,187.966007 303.67,189.513992 303.67,191.134 L303.67,191.134 Z M376.192,193.294 C376.192,195.34601 375.805004,197.028993 375.031,198.343 C374.256996,199.657007 373.267006,200.691996 372.061,201.448 C370.854994,202.204004 369.523007,202.734998 368.065,203.041 C366.606993,203.347002 365.212007,203.5 363.88,203.5 L352.162,203.5 L352.162,165.268 L362.584,165.268 C364.024007,165.268 365.454993,165.411999 366.877,165.7 C368.299007,165.988001 369.567994,166.473997 370.684,167.158 C371.800006,167.842003 372.699997,168.759994 373.384,169.912 C374.068003,171.064006 374.41,172.521991 374.41,174.286 C374.41,175.654007 374.194002,176.841995 373.762,177.85 C373.329998,178.858005 372.745004,179.721996 372.007,180.442 C371.268996,181.162004 370.432005,181.746998 369.496,182.197 C368.559995,182.647002 367.606005,182.979999 366.634,183.196 L366.634,183.304 C367.606005,183.412001 368.649994,183.672998 369.766,184.087 C370.882006,184.501002 371.916995,185.103996 372.871,185.896 C373.825005,186.688004 374.616997,187.695994 375.247,188.92 C375.877003,190.144006 376.192,191.601992 376.192,193.294 L376.192,193.294 Z M373.222,174.448 C373.222,172.899992 372.916003,171.604005 372.304,170.56 C371.691997,169.515995 370.882005,168.688003 369.874,168.076 C368.865995,167.463997 367.705007,167.023001 366.391,166.753 C365.076993,166.482999 363.700007,166.348 362.26,166.348 L353.35,166.348 L353.35,182.818 L362.53,182.818 C363.826006,182.818 365.112994,182.656002 366.391,182.332 C367.669006,182.007998 368.811995,181.513003 369.82,180.847 C370.828005,180.180997 371.646997,179.317005 372.277,178.255 C372.907003,177.192995 373.222,175.924007 373.222,174.448 L373.222,174.448 Z M375.004,193.456 C375.004,191.727991 374.653004,190.252006 373.951,189.028 C373.248996,187.803994 372.358005,186.814004 371.278,186.058 C370.197995,185.301996 369.010006,184.753002 367.714,184.411 C366.417994,184.068998 365.158006,183.898 363.934,183.898 L353.35,183.898 L353.35,202.42 L363.34,202.42 C364.996008,202.42 366.543993,202.249002 367.984,201.907 C369.424007,201.564998 370.656995,201.034004 371.683,200.314 C372.709005,199.593996 373.518997,198.667006 374.113,197.533 C374.707003,196.398994 375.004,195.040008 375.004,193.456 L375.004,193.456 Z M402.058,197.884 C402.058,198.820005 402.103,199.818995 402.193,200.881 C402.283,201.943005 402.381999,202.815997 402.49,203.5 L401.356,203.5 C401.284,203.139998 401.23,202.699003 401.194,202.177 C401.158,201.654997 401.113,201.115003 401.059,200.557 C401.005,199.998997 400.969,199.450003 400.951,198.91 C400.933,198.369997 400.924,197.920002 400.924,197.56 L400.762,197.56 C400.041996,199.828011 398.800009,201.510995 397.036,202.609 C395.271991,203.707005 393.38201,204.256 391.366,204.256 C390.357995,204.256 389.359005,204.112001 388.369,203.824 C387.378995,203.535999 386.488004,203.104003 385.696,202.528 C384.903996,201.951997 384.265002,201.214004 383.779,200.314 C383.292998,199.413995 383.05,198.352006 383.05,197.128 C383.05,195.363991 383.508995,193.942005 384.427,192.862 C385.345005,191.781995 386.487993,190.945003 387.856,190.351 C389.224007,189.756997 390.690992,189.370001 392.257,189.19 C393.823008,189.009999 395.253994,188.92 396.55,188.92 L400.87,188.92 L400.87,186.922 C400.87,184.149986 400.132007,182.125006 398.656,180.847 C397.179993,179.568994 395.254012,178.93 392.878,178.93 C391.401993,178.93 390.025006,179.199997 388.747,179.74 C387.468994,180.280003 386.326005,180.999996 385.318,181.9 L384.67,180.982 C385.822006,179.973995 387.126993,179.209003 388.585,178.687 C390.043007,178.164997 391.473993,177.904 392.878,177.904 C395.722014,177.904 397.962992,178.632993 399.601,180.091 C401.239008,181.549007 402.058,183.843984 402.058,186.976 L402.058,197.884 Z M400.87,189.946 L397.036,189.946 C395.667993,189.946 394.228008,190.026999 392.716,190.189 C391.203992,190.351001 389.818006,190.683997 388.558,191.188 C387.297994,191.692003 386.263004,192.411995 385.453,193.348 C384.642996,194.284005 384.238,195.543992 384.238,197.128 C384.238,198.280006 384.462998,199.242996 384.913,200.017 C385.363002,200.791004 385.938996,201.411998 386.641,201.88 C387.343004,202.348002 388.116996,202.689999 388.963,202.906 C389.809004,203.122001 390.609996,203.23 391.366,203.23 C393.202009,203.23 394.731994,202.888003 395.956,202.204 C397.180006,201.519997 398.160996,200.647005 398.899,199.585 C399.637004,198.522995 400.149999,197.353006 400.438,196.075 C400.726001,194.796994 400.87,193.546006 400.87,192.322 L400.87,189.946 Z M430.354,182.008 C429.417995,181.035995 428.320006,180.280003 427.06,179.74 C425.799994,179.199997 424.486007,178.93 423.118,178.93 C421.353991,178.93 419.770007,179.262997 418.366,179.929 C416.961993,180.595003 415.765005,181.485994 414.775,182.602 C413.784995,183.718006 413.020003,185.013993 412.48,186.49 C411.939997,187.966007 411.67,189.513992 411.67,191.134 C411.67,192.754008 411.939997,194.301993 412.48,195.778 C413.020003,197.254007 413.784995,198.540995 414.775,199.639 C415.765005,200.737005 416.961993,201.609997 418.366,202.258 C419.770007,202.906003 421.353991,203.23 423.118,203.23 C424.486007,203.23 425.826993,202.996002 427.141,202.528 C428.455007,202.059998 429.597995,201.358005 430.57,200.422 L431.38,201.178 C430.299995,202.258005 429.031007,203.040998 427.573,203.527 C426.114993,204.013002 424.630008,204.256 423.118,204.256 C421.281991,204.256 419.599008,203.932003 418.069,203.284 C416.538992,202.635997 415.207006,201.736006 414.073,200.584 C412.938994,199.431994 412.057003,198.046008 411.427,196.426 C410.796997,194.805992 410.482,193.04201 410.482,191.134 C410.482,189.22599 410.796997,187.462008 411.427,185.842 C412.057003,184.221992 412.938994,182.827006 414.073,181.657 C415.207006,180.486994 416.538992,179.569003 418.069,178.903 C419.599008,178.236997 421.281991,177.904 423.118,177.904 C424.702008,177.904 426.204993,178.191997 427.627,178.768 C429.049007,179.344003 430.263995,180.153995 431.272,181.198 L430.354,182.008 Z M439.804,190.108 L452.656,178.66 L454.33,178.66 L441.208,190.162 L455.842,203.5 L454.06,203.5 L439.804,190.378 L439.75,190.378 L439.75,203.5 L438.562,203.5 L438.562,162.676 L439.75,162.676 L439.75,190.108 L439.804,190.108 Z M462.592,203.5 L462.592,162.676 L463.78,162.676 L463.78,203.5 L462.592,203.5 Z M475.39,169.318 C475.065998,169.318 474.778001,169.192001 474.526,168.94 C474.273999,168.687999 474.148,168.346002 474.148,167.914 C474.148,167.517998 474.273999,167.194001 474.526,166.942 C474.778001,166.689999 475.065998,166.564 475.39,166.564 C475.714002,166.564 476.001999,166.689999 476.254,166.942 C476.506001,167.194001 476.632,167.517998 476.632,167.914 C476.632,168.346002 476.497001,168.687999 476.227,168.94 C475.956999,169.192001 475.678001,169.318 475.39,169.318 L475.39,169.318 Z M474.796,203.5 L474.796,178.66 L475.984,178.66 L475.984,203.5 L474.796,203.5 Z M508.6,196.804 L508.438,196.804 C507.969998,198.028006 507.340004,199.098995 506.548,200.017 C505.755996,200.935005 504.874005,201.708997 503.902,202.339 C502.929995,202.969003 501.877006,203.445998 500.743,203.77 C499.608994,204.094002 498.448006,204.256 497.26,204.256 C495.459991,204.256 493.795008,203.923003 492.265,203.257 C490.734992,202.590997 489.421005,201.673006 488.323,200.503 C487.224995,199.332994 486.370003,197.947008 485.758,196.345 C485.145997,194.742992 484.84,193.006009 484.84,191.134 C484.84,189.261991 485.145997,187.516008 485.758,185.896 C486.370003,184.275992 487.224995,182.872006 488.323,181.684 C489.421005,180.495994 490.734992,179.569003 492.265,178.903 C493.795008,178.236997 495.459991,177.904 497.26,177.904 C499.636012,177.904 501.82299,178.533994 503.821,179.794 C505.81901,181.054006 507.357995,182.925988 508.438,185.41 L508.6,185.41 L508.6,178.66 L509.788,178.66 L509.788,202.096 C509.788,204.07601 509.581002,205.965991 509.167,207.766 C508.752998,209.566009 508.069005,211.149993 507.115,212.518 C506.160995,213.886007 504.901008,214.974996 503.335,215.785 C501.768992,216.595004 499.834012,217 497.53,217 C495.189988,217 493.102009,216.595004 491.266,215.785 C489.429991,214.974996 487.864006,213.832007 486.568,212.356 L487.378,211.546 C488.746007,213.094008 490.302991,214.218996 492.049,214.921 C493.795009,215.623004 495.62199,215.974 497.53,215.974 C499.690011,215.974 501.489993,215.578004 502.93,214.786 C504.370007,213.993996 505.503996,212.950006 506.332,211.654 C507.160004,210.357994 507.744998,208.873008 508.087,207.199 C508.429002,205.524992 508.6,203.788009 508.6,201.988 L508.6,196.804 Z M486.028,191.134 C486.028,192.754008 486.288997,194.301993 486.811,195.778 C487.333003,197.254007 488.079995,198.549994 489.052,199.666 C490.024005,200.782006 491.202993,201.663997 492.589,202.312 C493.975007,202.960003 495.531991,203.284 497.26,203.284 C498.916008,203.284 500.436993,202.960003 501.823,202.312 C503.209007,201.663997 504.405995,200.782006 505.414,199.666 C506.422005,198.549994 507.213997,197.254007 507.79,195.778 C508.366003,194.301993 508.654,192.736008 508.654,191.08 C508.654,189.423992 508.366003,187.858007 507.79,186.382 C507.213997,184.905993 506.422005,183.619005 505.414,182.521 C504.405995,181.422995 503.209007,180.550003 501.823,179.902 C500.436993,179.253997 498.916008,178.93 497.26,178.93 C495.531991,178.93 493.975007,179.262997 492.589,179.929 C491.202993,180.595003 490.024005,181.485994 489.052,182.602 C488.079995,183.718006 487.333003,185.013993 486.811,186.49 C486.288997,187.966007 486.028,189.513992 486.028,191.134 L486.028,191.134 Z M522.1,185.194 C522.460002,184.041994 522.972997,183.016005 523.639,182.116 C524.305003,181.215996 525.069996,180.451003 525.934,179.821 C526.798004,179.190997 527.733995,178.714002 528.742,178.39 C529.750005,178.065998 530.793995,177.904 531.874,177.904 C533.602009,177.904 535.041994,178.209997 536.194,178.822 C537.346006,179.434003 538.263997,180.243995 538.948,181.252 C539.632003,182.260005 540.117999,183.393994 540.406,184.654 C540.694001,185.914006 540.838,187.191994 540.838,188.488 L540.838,203.5 L539.65,203.5 L539.65,188.596 C539.65,187.587995 539.542001,186.508006 539.326,185.356 C539.109999,184.203994 538.705003,183.160005 538.111,182.224 C537.516997,181.287995 536.716005,180.505003 535.708,179.875 C534.699995,179.244997 533.422008,178.93 531.874,178.93 C530.505993,178.93 529.219006,179.208997 528.013,179.767 C526.806994,180.325003 525.763004,181.125995 524.881,182.17 C523.998996,183.214005 523.297003,184.482993 522.775,185.977 C522.252997,187.471007 521.992,189.17199 521.992,191.08 L521.992,203.5 L520.804,203.5 L520.804,162.676 L521.992,162.676 L521.992,185.194 L522.1,185.194 Z M561.142,203.554 C560.709998,203.734001 560.206003,203.877999 559.63,203.986 C559.053997,204.094001 558.496003,204.148 557.956,204.148 C556.01199,204.148 554.617004,203.599005 553.771,202.501 C552.924996,201.402995 552.502,200.026008 552.502,198.37 L552.502,179.686 L547.102,179.686 L547.102,178.66 L552.448,178.66 L552.448,171.37 L553.69,171.37 L553.69,178.66 L560.98,178.66 L560.98,179.686 L553.69,179.686 L553.69,198.37 C553.69,200.062008 554.103996,201.276996 554.932,202.015 C555.760004,202.753004 556.857993,203.122 558.226,203.122 C559.234005,203.122 560.151996,202.960002 560.98,202.636 L561.142,203.554 Z M612.982,198.802 C611.361992,200.74601 609.319012,202.194995 606.853,203.149 C604.386988,204.103005 601.876013,204.58 599.32,204.58 C596.439986,204.58 593.812012,204.076005 591.436,203.068 C589.059988,202.059995 587.008009,200.665009 585.28,198.883 C583.551991,197.100991 582.211005,194.968012 581.257,192.484 C580.302995,189.999988 579.826,187.300015 579.826,184.384 C579.826,181.467985 580.302995,178.768012 581.257,176.284 C582.211005,173.799988 583.551991,171.667009 585.28,169.885 C587.008009,168.102991 589.068988,166.708005 591.463,165.7 C593.857012,164.691995 596.475986,164.188 599.32,164.188 C601.696012,164.188 604.008989,164.592996 606.259,165.403 C608.509011,166.213004 610.425992,167.445992 612.01,169.102 L611.254,169.966 C610.497996,169.173996 609.643005,168.481003 608.689,167.887 C607.734995,167.292997 606.727005,166.798002 605.665,166.402 C604.602995,166.005998 603.532005,165.718001 602.452,165.538 C601.371995,165.357999 600.328005,165.268 599.32,165.268 C596.583986,165.268 594.091011,165.762995 591.841,166.753 C589.590989,167.743005 587.665008,169.101991 586.063,170.83 C584.460992,172.558009 583.219004,174.582988 582.337,176.905 C581.454996,179.227012 581.014,181.719987 581.014,184.384 C581.014,187.048013 581.445996,189.540988 582.31,191.863 C583.174004,194.185012 584.406992,196.209991 586.009,197.938 C587.611008,199.666009 589.536989,201.024995 591.787,202.015 C594.037011,203.005005 596.547986,203.5 599.32,203.5 C601.696012,203.5 604.044988,203.041005 606.367,202.123 C608.689012,201.204995 610.605992,199.828009 612.118,197.992 L612.982,198.802 Z M643.708,191.026 C643.708,192.97001 643.393003,194.751992 642.763,196.372 C642.132997,197.992008 641.242006,199.386994 640.09,200.557 C638.937994,201.727006 637.561008,202.635997 635.959,203.284 C634.356992,203.932003 632.60201,204.256 630.694,204.256 C628.78599,204.256 627.040008,203.932003 625.456,203.284 C623.871992,202.635997 622.504006,201.727006 621.352,200.557 C620.199994,199.386994 619.309003,197.992008 618.679,196.372 C618.048997,194.751992 617.734,192.97001 617.734,191.026 C617.734,189.08199 618.048997,187.309008 618.679,185.707 C619.309003,184.104992 620.199994,182.728006 621.352,181.576 C622.504006,180.423994 623.871992,179.524003 625.456,178.876 C627.040008,178.227997 628.78599,177.904 630.694,177.904 C632.60201,177.904 634.356992,178.227997 635.959,178.876 C637.561008,179.524003 638.937994,180.423994 640.09,181.576 C641.242006,182.728006 642.132997,184.104992 642.763,185.707 C643.393003,187.309008 643.708,189.08199 643.708,191.026 L643.708,191.026 Z M642.52,191.026 C642.52,189.369992 642.250003,187.804007 641.71,186.328 C641.169997,184.851993 640.387005,183.565005 639.361,182.467 C638.334995,181.368995 637.093007,180.505003 635.635,179.875 C634.176993,179.244997 632.530009,178.93 630.694,178.93 C628.857991,178.93 627.220007,179.244997 625.78,179.875 C624.339993,180.505003 623.107005,181.368995 622.081,182.467 C621.054995,183.565005 620.272003,184.851993 619.732,186.328 C619.191997,187.804007 618.922,189.369992 618.922,191.026 C618.922,192.718008 619.191997,194.301993 619.732,195.778 C620.272003,197.254007 621.054995,198.540995 622.081,199.639 C623.107005,200.737005 624.339993,201.609997 625.78,202.258 C627.220007,202.906003 628.857991,203.23 630.694,203.23 C632.530009,203.23 634.176993,202.906003 635.635,202.258 C637.093007,201.609997 638.334995,200.737005 639.361,199.639 C640.387005,198.540995 641.169997,197.254007 641.71,195.778 C642.250003,194.301993 642.52,192.718008 642.52,191.026 L642.52,191.026 Z M653.968,185.194 C654.328002,184.041994 654.849997,183.016005 655.534,182.116 C656.218003,181.215996 656.991996,180.451003 657.856,179.821 C658.720004,179.190997 659.655995,178.714002 660.664,178.39 C661.672005,178.065998 662.715995,177.904 663.796,177.904 C665.524009,177.904 666.963994,178.209997 668.116,178.822 C669.268006,179.434003 670.185997,180.243995 670.87,181.252 C671.554003,182.260005 672.039999,183.393994 672.328,184.654 C672.616001,185.914006 672.76,187.191994 672.76,188.488 L672.76,203.5 L671.572,203.5 L671.572,188.596 C671.572,187.587995 671.464001,186.508006 671.248,185.356 C671.031999,184.203994 670.627003,183.160005 670.033,182.224 C669.438997,181.287995 668.638005,180.505003 667.63,179.875 C666.621995,179.244997 665.344008,178.93 663.796,178.93 C662.427993,178.93 661.141006,179.208997 659.935,179.767 C658.728994,180.325003 657.685004,181.125995 656.803,182.17 C655.920996,183.214005 655.219003,184.482993 654.697,185.977 C654.174997,187.471007 653.914,189.17199 653.914,191.08 L653.914,203.5 L652.726,203.5 L652.726,184.924 C652.726,184.527998 652.717,184.042003 652.699,183.466 C652.681,182.889997 652.663,182.305003 652.645,181.711 C652.627,181.116997 652.6,180.550003 652.564,180.01 C652.528,179.469997 652.492,179.020002 652.456,178.66 L653.644,178.66 C653.68,179.020002 653.707,179.469997 653.725,180.01 C653.743,180.550003 653.761,181.134997 653.779,181.765 C653.797,182.395003 653.815,183.006997 653.833,183.601 C653.851,184.195003 653.86,184.725998 653.86,185.194 L653.968,185.194 Z M693.064,203.554 C692.631998,203.734001 692.128003,203.877999 691.552,203.986 C690.975997,204.094001 690.418003,204.148 689.878,204.148 C687.93399,204.148 686.539004,203.599005 685.693,202.501 C684.846996,201.402995 684.424,200.026008 684.424,198.37 L684.424,179.686 L679.024,179.686 L679.024,178.66 L684.37,178.66 L684.37,171.37 L685.612,171.37 L685.612,178.66 L692.902,178.66 L692.902,179.686 L685.612,179.686 L685.612,198.37 C685.612,200.062008 686.025996,201.276996 686.854,202.015 C687.682004,202.753004 688.779993,203.122 690.148,203.122 C691.156005,203.122 692.073996,202.960002 692.902,202.636 L693.064,203.554 Z M701.272,185.194 C701.992004,182.601987 703.143992,180.739006 704.728,179.605 C706.312008,178.470994 708.021991,177.904 709.858,177.904 L710.344,177.904 C710.488001,177.904 710.649999,177.922 710.83,177.958 L710.83,178.984 C710.685999,178.948 710.551001,178.93 710.425,178.93 L710.128,178.93 C708.543992,178.93 707.194006,179.280996 706.078,179.983 C704.961994,180.685004 704.044004,181.602994 703.324,182.737 C702.603996,183.871006 702.073002,185.130993 701.731,186.517 C701.388998,187.903007 701.218,189.279993 701.218,190.648 L701.218,203.5 L700.03,203.5 L700.03,184.924 C700.03,184.527998 700.021,184.042003 700.003,183.466 C699.985,182.889997 699.967,182.305003 699.949,181.711 C699.931,181.116997 699.904,180.550003 699.868,180.01 C699.832,179.469997 699.796,179.020002 699.76,178.66 L700.948,178.66 C700.984,179.020002 701.011,179.469997 701.029,180.01 C701.047,180.550003 701.065,181.134997 701.083,181.765 C701.101,182.395003 701.119,183.006997 701.137,183.601 C701.155,184.195003 701.164,184.725998 701.164,185.194 L701.272,185.194 Z M739.828,191.026 C739.828,192.97001 739.513003,194.751992 738.883,196.372 C738.252997,197.992008 737.362006,199.386994 736.21,200.557 C735.057994,201.727006 733.681008,202.635997 732.079,203.284 C730.476992,203.932003 728.72201,204.256 726.814,204.256 C724.90599,204.256 723.160008,203.932003 721.576,203.284 C719.991992,202.635997 718.624006,201.727006 717.472,200.557 C716.319994,199.386994 715.429003,197.992008 714.799,196.372 C714.168997,194.751992 713.854,192.97001 713.854,191.026 C713.854,189.08199 714.168997,187.309008 714.799,185.707 C715.429003,184.104992 716.319994,182.728006 717.472,181.576 C718.624006,180.423994 719.991992,179.524003 721.576,178.876 C723.160008,178.227997 724.90599,177.904 726.814,177.904 C728.72201,177.904 730.476992,178.227997 732.079,178.876 C733.681008,179.524003 735.057994,180.423994 736.21,181.576 C737.362006,182.728006 738.252997,184.104992 738.883,185.707 C739.513003,187.309008 739.828,189.08199 739.828,191.026 L739.828,191.026 Z M738.64,191.026 C738.64,189.369992 738.370003,187.804007 737.83,186.328 C737.289997,184.851993 736.507005,183.565005 735.481,182.467 C734.454995,181.368995 733.213007,180.505003 731.755,179.875 C730.296993,179.244997 728.650009,178.93 726.814,178.93 C724.977991,178.93 723.340007,179.244997 721.9,179.875 C720.459993,180.505003 719.227005,181.368995 718.201,182.467 C717.174995,183.565005 716.392003,184.851993 715.852,186.328 C715.311997,187.804007 715.042,189.369992 715.042,191.026 C715.042,192.718008 715.311997,194.301993 715.852,195.778 C716.392003,197.254007 717.174995,198.540995 718.201,199.639 C719.227005,200.737005 720.459993,201.609997 721.9,202.258 C723.340007,202.906003 724.977991,203.23 726.814,203.23 C728.650009,203.23 730.296993,202.906003 731.755,202.258 C733.213007,201.609997 734.454995,200.737005 735.481,199.639 C736.507005,198.540995 737.289997,197.254007 737.83,195.778 C738.370003,194.301993 738.64,192.718008 738.64,191.026 L738.64,191.026 Z M748.684,203.5 L748.684,162.676 L749.872,162.676 L749.872,203.5 L748.684,203.5 Z M760.888,203.5 L760.888,162.676 L762.076,162.676 L762.076,203.5 L760.888,203.5 Z M772.12,190.81 C772.12,192.322008 772.344998,193.815993 772.795,195.292 C773.245002,196.768007 773.928995,198.090994 774.847,199.261 C775.765005,200.431006 776.925993,201.375996 778.33,202.096 C779.734007,202.816004 781.38999,203.176 783.298,203.176 C785.24201,203.176 786.969992,202.789004 788.482,202.015 C789.994008,201.240996 791.307994,200.116007 792.424,198.64 L793.288,199.396 C792.063994,200.980008 790.633008,202.185996 788.995,203.014 C787.356992,203.842004 785.458011,204.256 783.298,204.256 C781.461991,204.256 779.788008,203.923003 778.276,203.257 C776.763992,202.590997 775.459005,201.664006 774.361,200.476 C773.262995,199.287994 772.417003,197.866008 771.823,196.21 C771.228997,194.553992 770.932,192.75401 770.932,190.81 C770.932,188.937991 771.237997,187.210008 771.85,185.626 C772.462003,184.041992 773.298995,182.674006 774.361,181.522 C775.423005,180.369994 776.673993,179.479003 778.114,178.849 C779.554007,178.218997 781.101992,177.904 782.758,177.904 C784.70201,177.904 786.393993,178.245997 787.834,178.93 C789.274007,179.614003 790.470995,180.513994 791.425,181.63 C792.379005,182.746006 793.089998,184.014993 793.558,185.437 C794.026002,186.859007 794.26,188.307993 794.26,189.784 L794.26,190.81 L772.12,190.81 Z M793.126,189.784 C793.09,188.163992 792.811003,186.688007 792.289,185.356 C791.766997,184.023993 791.056004,182.881005 790.156,181.927 C789.255995,180.972995 788.176006,180.235003 786.916,179.713 C785.655994,179.190997 784.252008,178.93 782.704,178.93 C780.831991,178.93 779.230007,179.316996 777.898,180.091 C776.565993,180.865004 775.477004,181.818994 774.631,182.953 C773.784996,184.087006 773.164002,185.274994 772.768,186.517 C772.371998,187.759006 772.174,188.847995 772.174,189.784 L793.126,189.784 Z M804.52,185.194 C805.240004,182.601987 806.391992,180.739006 807.976,179.605 C809.560008,178.470994 811.269991,177.904 813.106,177.904 L813.592,177.904 C813.736001,177.904 813.897999,177.922 814.078,177.958 L814.078,178.984 C813.933999,178.948 813.799001,178.93 813.673,178.93 L813.376,178.93 C811.791992,178.93 810.442006,179.280996 809.326,179.983 C808.209994,180.685004 807.292004,181.602994 806.572,182.737 C805.851996,183.871006 805.321002,185.130993 804.979,186.517 C804.636998,187.903007 804.466,189.279993 804.466,190.648 L804.466,203.5 L803.278,203.5 L803.278,184.924 C803.278,184.527998 803.269,184.042003 803.251,183.466 C803.233,182.889997 803.215,182.305003 803.197,181.711 C803.179,181.116997 803.152,180.550003 803.116,180.01 C803.08,179.469997 803.044,179.020002 803.008,178.66 L804.196,178.66 C804.232,179.020002 804.259,179.469997 804.277,180.01 C804.295,180.550003 804.313,181.134997 804.331,181.765 C804.349,182.395003 804.367,183.006997 804.385,183.601 C804.403,184.195003 804.412,184.725998 804.412,185.194 L804.52,185.194 Z" id="MSI-Keyboard-Backlig" fill="url(#linearGradient-2)" sketch:type="MSShapeGroup"></path>
            </g>
        </g>
    </g>
</svg>